<?xml version="1.0" encoding="UTF-8" standalone="no"?>
<!DOCTYPE svg PUBLIC "-//W3C//DTD SVG 1.1//EN"
 "http://www.w3.org/Graphics/SVG/1.1/DTD/svg11.dtd">
<!-- Generated by graphviz version 2.40.1 (20161225.0304)
 -->
<!-- Title: G Pages: 1 -->
<svg width="596pt" height="3932pt"
 viewBox="0.00 0.00 596.00 3932.00" xmlns="http://www.w3.org/2000/svg" xmlns:xlink="http://www.w3.org/1999/xlink">
<g id="graph0" class="graph" transform="scale(1 1) rotate(0) translate(4 3928)">
<title>G</title>
<polygon fill="#ffffff" stroke="transparent" points="-4,4 -4,-3928 592,-3928 592,4 -4,4"/>
<g id="clust1" class="cluster">
<title>cluster_Global</title>
<path fill="none" stroke="#c0c0c0" d="M20,-8C20,-8 568,-8 568,-8 574,-8 580,-14 580,-20 580,-20 580,-3904 580,-3904 580,-3910 574,-3916 568,-3916 568,-3916 20,-3916 20,-3916 14,-3916 8,-3910 8,-3904 8,-3904 8,-20 8,-20 8,-14 14,-8 20,-8"/>
<text text-anchor="middle" x="294" y="-3903.2" font-family="Times,serif" font-size="11.00" fill="#c0c0c0">Global</text>
</g>
<g id="clust2" class="cluster">
<title>cluster_\App</title>
<path fill="none" stroke="#c0c0c0" d="M176,-16C176,-16 560,-16 560,-16 566,-16 572,-22 572,-28 572,-28 572,-3876 572,-3876 572,-3882 566,-3888 560,-3888 560,-3888 176,-3888 176,-3888 170,-3888 164,-3882 164,-3876 164,-3876 164,-28 164,-28 164,-22 170,-16 176,-16"/>
<text text-anchor="middle" x="368" y="-3875.2" font-family="Times,serif" font-size="11.00" fill="#c0c0c0">App</text>
</g>
<g id="clust3" class="cluster">
<title>cluster_\App\Models</title>
<path fill="none" stroke="#c0c0c0" d="M397,-3518C397,-3518 507,-3518 507,-3518 513,-3518 519,-3524 519,-3530 519,-3530 519,-3848 519,-3848 519,-3854 513,-3860 507,-3860 507,-3860 397,-3860 397,-3860 391,-3860 385,-3854 385,-3848 385,-3848 385,-3530 385,-3530 385,-3524 391,-3518 397,-3518"/>
<text text-anchor="middle" x="452" y="-3847.2" font-family="Times,serif" font-size="11.00" fill="#c0c0c0">Models</text>
</g>
<g id="clust4" class="cluster">
<title>cluster_\App\Views</title>
<path fill="none" stroke="#c0c0c0" d="M352,-798C352,-798 552,-798 552,-798 558,-798 564,-804 564,-810 564,-810 564,-3498 564,-3498 564,-3504 558,-3510 552,-3510 552,-3510 352,-3510 352,-3510 346,-3510 340,-3504 340,-3498 340,-3498 340,-810 340,-810 340,-804 346,-798 352,-798"/>
<text text-anchor="middle" x="452" y="-3497.2" font-family="Times,serif" font-size="11.00" fill="#c0c0c0">Views</text>
</g>
<g id="clust5" class="cluster">
<title>cluster_\App\Views\Common</title>
<path fill="none" stroke="#c0c0c0" d="M427.5,-3248C427.5,-3248 476.5,-3248 476.5,-3248 482.5,-3248 488.5,-3254 488.5,-3260 488.5,-3260 488.5,-3470 488.5,-3470 488.5,-3476 482.5,-3482 476.5,-3482 476.5,-3482 427.5,-3482 427.5,-3482 421.5,-3482 415.5,-3476 415.5,-3470 415.5,-3470 415.5,-3260 415.5,-3260 415.5,-3254 421.5,-3248 427.5,-3248"/>
<text text-anchor="middle" x="452" y="-3469.2" font-family="Times,serif" font-size="11.00" fill="#c0c0c0">Common</text>
</g>
<g id="clust6" class="cluster">
<title>cluster_\App\Views\TypesDocument</title>
<path fill="none" stroke="#c0c0c0" d="M360,-2790C360,-2790 544,-2790 544,-2790 550,-2790 556,-2796 556,-2802 556,-2802 556,-3228 556,-3228 556,-3234 550,-3240 544,-3240 544,-3240 360,-3240 360,-3240 354,-3240 348,-3234 348,-3228 348,-3228 348,-2802 348,-2802 348,-2796 354,-2790 360,-2790"/>
<text text-anchor="middle" x="452" y="-3227.2" font-family="Times,serif" font-size="11.00" fill="#c0c0c0">TypesDocument</text>
</g>
<g id="clust7" class="cluster">
<title>cluster_\App\Views\TypesIndividu</title>
<path fill="none" stroke="#c0c0c0" d="M360,-2332C360,-2332 544,-2332 544,-2332 550,-2332 556,-2338 556,-2344 556,-2344 556,-2770 556,-2770 556,-2776 550,-2782 544,-2782 544,-2782 360,-2782 360,-2782 354,-2782 348,-2776 348,-2770 348,-2770 348,-2344 348,-2344 348,-2338 354,-2332 360,-2332"/>
<text text-anchor="middle" x="452" y="-2769.2" font-family="Times,serif" font-size="11.00" fill="#c0c0c0">TypesIndividu</text>
</g>
<g id="clust8" class="cluster">
<title>cluster_\App\Views\Documents</title>
<path fill="none" stroke="#c0c0c0" d="M373.5,-1982C373.5,-1982 530.5,-1982 530.5,-1982 536.5,-1982 542.5,-1988 542.5,-1994 542.5,-1994 542.5,-2312 542.5,-2312 542.5,-2318 536.5,-2324 530.5,-2324 530.5,-2324 373.5,-2324 373.5,-2324 367.5,-2324 361.5,-2318 361.5,-2312 361.5,-2312 361.5,-1994 361.5,-1994 361.5,-1988 367.5,-1982 373.5,-1982"/>
<text text-anchor="middle" x="452" y="-2311.2" font-family="Times,serif" font-size="11.00" fill="#c0c0c0">Documents</text>
</g>
<g id="clust9" class="cluster">
<title>cluster_\App\Views\Individus</title>
<path fill="none" stroke="#c0c0c0" d="M373.5,-1524C373.5,-1524 530.5,-1524 530.5,-1524 536.5,-1524 542.5,-1530 542.5,-1536 542.5,-1536 542.5,-1962 542.5,-1962 542.5,-1968 536.5,-1974 530.5,-1974 530.5,-1974 373.5,-1974 373.5,-1974 367.5,-1974 361.5,-1968 361.5,-1962 361.5,-1962 361.5,-1536 361.5,-1536 361.5,-1530 367.5,-1524 373.5,-1524"/>
<text text-anchor="middle" x="452" y="-1961.2" font-family="Times,serif" font-size="11.00" fill="#c0c0c0">Individus</text>
</g>
<g id="clust10" class="cluster">
<title>cluster_\App\Views\Users</title>
<path fill="none" stroke="#c0c0c0" d="M387,-1066C387,-1066 517,-1066 517,-1066 523,-1066 529,-1072 529,-1078 529,-1078 529,-1504 529,-1504 529,-1510 523,-1516 517,-1516 517,-1516 387,-1516 387,-1516 381,-1516 375,-1510 375,-1504 375,-1504 375,-1078 375,-1078 375,-1072 381,-1066 387,-1066"/>
<text text-anchor="middle" x="452" y="-1503.2" font-family="Times,serif" font-size="11.00" fill="#c0c0c0">Users</text>
</g>
<g id="clust11" class="cluster">
<title>cluster_\App\Views\Home</title>
<path fill="none" stroke="#c0c0c0" d="M429,-986C429,-986 475,-986 475,-986 481,-986 487,-992 487,-998 487,-998 487,-1046 487,-1046 487,-1052 481,-1058 475,-1058 475,-1058 429,-1058 429,-1058 423,-1058 417,-1052 417,-1046 417,-1046 417,-998 417,-998 417,-992 423,-986 429,-986"/>
<text text-anchor="middle" x="452" y="-1045.2" font-family="Times,serif" font-size="11.00" fill="#c0c0c0">Home</text>
</g>
<g id="clust12" class="cluster">
<title>cluster_\App\Views\Login</title>
<path fill="none" stroke="#c0c0c0" d="M429,-906C429,-906 475,-906 475,-906 481,-906 487,-912 487,-918 487,-918 487,-966 487,-966 487,-972 481,-978 475,-978 475,-978 429,-978 429,-978 423,-978 417,-972 417,-966 417,-966 417,-918 417,-918 417,-912 423,-906 429,-906"/>
<text text-anchor="middle" x="452" y="-965.2" font-family="Times,serif" font-size="11.00" fill="#c0c0c0">Login</text>
</g>
<g id="clust13" class="cluster">
<title>cluster_\App\Controllers</title>
<path fill="none" stroke="#c0c0c0" d="M184,-286C184,-286 500,-286 500,-286 506,-286 512,-292 512,-298 512,-298 512,-778 512,-778 512,-784 506,-790 500,-790 500,-790 184,-790 184,-790 178,-790 172,-784 172,-778 172,-778 172,-298 172,-298 172,-292 178,-286 184,-286"/>
<text text-anchor="middle" x="342" y="-777.2" font-family="Times,serif" font-size="11.00" fill="#c0c0c0">Controllers</text>
</g>
<g id="clust14" class="cluster">
<title>cluster_\Core</title>
<path fill="none" stroke="#c0c0c0" d="M28,-664C28,-664 104,-664 104,-664 110,-664 116,-670 116,-676 116,-676 116,-940 116,-940 116,-946 110,-952 104,-952 104,-952 28,-952 28,-952 22,-952 16,-946 16,-940 16,-940 16,-676 16,-676 16,-670 22,-664 28,-664"/>
<text text-anchor="middle" x="66" y="-939.2" font-family="Times,serif" font-size="11.00" fill="#c0c0c0">Core</text>
</g>
<!-- \\App\\Models\\Individu -->
<g id="node1" class="node">
<title>\\App\\Models\\Individu</title>
<polygon fill="none" stroke="#000000" points="487.5,-3562 416.5,-3562 416.5,-3526 487.5,-3526 487.5,-3562"/>
<text text-anchor="middle" x="452" y="-3541.2" font-family="Courier,monospace" font-size="11.00" fill="#000000">Individu</text>
</g>
<!-- \\Core\\Model -->
<g id="node71" class="node">
<title>\\Core\\Model</title>
<polygon fill="none" stroke="#000000" points="108,-762 24,-762 24,-726 108,-726 108,-762"/>
<text text-anchor="start" x="32" y="-747.2" font-family="Courier,monospace" font-size="11.00" fill="#000000">«abstract»</text>
<text text-anchor="start" x="49" y="-735.2" font-family="Courier,monospace" font-size="11.00" fill="#000000">Model</text>
</g>
<!-- \\App\\Models\\Individu&#45;&gt;\\Core\\Model -->
<g id="edge1" class="edge">
<title>\\App\\Models\\Individu&#45;&gt;\\Core\\Model</title>
<path fill="none" stroke="#000000" d="M416.3746,-3547.5437C393.4111,-3551.0089 363.5529,-3557.7952 340,-3571 280.7886,-3604.1965 281.3366,-3725.6251 232,-3679"/>
<path fill="none" stroke="#000000" d="M232,-3679C-3.023,-3456.894 287.1562,-1045.3583 116,-771 115.7389,-770.5815 115.469,-770.169 115.1906,-769.7625"/>
<polygon fill="none" stroke="#000000" points="117.5555,-767.1589 108.2585,-762.0779 112.3578,-771.8476 117.5555,-767.1589"/>
</g>
<!-- \\App\\Models\\TypeDocument -->
<g id="node2" class="node">
<title>\\App\\Models\\TypeDocument</title>
<polygon fill="none" stroke="#000000" points="501,-3616 403,-3616 403,-3580 501,-3580 501,-3616"/>
<text text-anchor="middle" x="452" y="-3595.2" font-family="Courier,monospace" font-size="11.00" fill="#000000">TypeDocument</text>
</g>
<!-- \\App\\Models\\TypeDocument&#45;&gt;\\Core\\Model -->
<g id="edge2" class="edge">
<title>\\App\\Models\\TypeDocument&#45;&gt;\\Core\\Model</title>
<path fill="none" stroke="#000000" d="M402.773,-3607.3323C382.9677,-3611.7382 360.1033,-3617.6594 340,-3625 289.5899,-3643.407 271.004,-3715.8603 232,-3679"/>
</g>
<!-- \\App\\Models\\User -->
<g id="node3" class="node">
<title>\\App\\Models\\User</title>
<polygon fill="none" stroke="#000000" points="479,-3670 425,-3670 425,-3634 479,-3634 479,-3670"/>
<text text-anchor="middle" x="452" y="-3649.2" font-family="Courier,monospace" font-size="11.00" fill="#000000">User</text>
</g>
<!-- \\App\\Models\\User&#45;&gt;\\Core\\Model -->
<g id="edge5" class="edge">
<title>\\App\\Models\\User&#45;&gt;\\Core\\Model</title>
<path fill="none" stroke="#000000" d="M424.949,-3657.6298C369.2526,-3668.8943 245.8091,-3692.0502 232,-3679"/>
</g>
<!-- \\App\\Models\\Document -->
<g id="node4" class="node">
<title>\\App\\Models\\Document</title>
<polygon fill="none" stroke="#000000" points="487.5,-3724 416.5,-3724 416.5,-3688 487.5,-3688 487.5,-3724"/>
<text text-anchor="middle" x="452" y="-3703.2" font-family="Courier,monospace" font-size="11.00" fill="#000000">Document</text>
</g>
<!-- \\App\\Models\\Document&#45;&gt;\\Core\\Model -->
<g id="edge8" class="edge">
<title>\\App\\Models\\Document&#45;&gt;\\Core\\Model</title>
<path fill="none" stroke="#000000" d="M416.2212,-3713.2386C367.7221,-3720.7807 281.5032,-3725.7824 232,-3679"/>
</g>
<!-- \\App\\Models\\RememberedLogin -->
<g id="node5" class="node">
<title>\\App\\Models\\RememberedLogin</title>
<polygon fill="none" stroke="#000000" points="511,-3778 393,-3778 393,-3742 511,-3742 511,-3778"/>
<text text-anchor="middle" x="452" y="-3757.2" font-family="Courier,monospace" font-size="11.00" fill="#000000">RememberedLogin</text>
</g>
<!-- \\App\\Models\\RememberedLogin&#45;&gt;\\Core\\Model -->
<g id="edge10" class="edge">
<title>\\App\\Models\\RememberedLogin&#45;&gt;\\Core\\Model</title>
<path fill="none" stroke="#000000" d="M392.9026,-3751.4067C344.2766,-3741.5352 276.372,-3720.9333 232,-3679"/>
</g>
<!-- \\App\\Models\\TypeIndividu -->
<g id="node6" class="node">
<title>\\App\\Models\\TypeIndividu</title>
<polygon fill="none" stroke="#000000" points="501,-3832 403,-3832 403,-3796 501,-3796 501,-3832"/>
<text text-anchor="middle" x="452" y="-3811.2" font-family="Courier,monospace" font-size="11.00" fill="#000000">TypeIndividu</text>
</g>
<!-- \\App\\Models\\TypeIndividu&#45;&gt;\\Core\\Model -->
<g id="edge15" class="edge">
<title>\\App\\Models\\TypeIndividu&#45;&gt;\\Core\\Model</title>
<path fill="none" stroke="#000000" d="M402.9916,-3808.1699C382.5688,-3804.2576 359.1913,-3797.7595 340,-3787 280.7886,-3753.8035 281.3366,-3725.6251 232,-3679"/>
</g>
<!-- \\App\\Views\\Common\\Menu -->
<g id="node7" class="node">
<title>\\App\\Views\\Common\\Menu</title>
<polygon fill="none" stroke="#000000" points="479,-3454 425,-3454 425,-3418 479,-3418 479,-3454"/>
<text text-anchor="middle" x="452" y="-3433.2" font-family="Courier,monospace" font-size="11.00" fill="#000000">Menu</text>
</g>
<!-- \\App\\Views\\Common\\Header -->
<g id="node8" class="node">
<title>\\App\\Views\\Common\\Header</title>
<polygon fill="none" stroke="#000000" points="480.5,-3400 423.5,-3400 423.5,-3364 480.5,-3364 480.5,-3400"/>
<text text-anchor="middle" x="452" y="-3379.2" font-family="Courier,monospace" font-size="11.00" fill="#000000">Header</text>
</g>
<!-- \\App\\Views\\Common\\Entete -->
<g id="node9" class="node">
<title>\\App\\Views\\Common\\Entete</title>
<polygon fill="none" stroke="#000000" points="480.5,-3346 423.5,-3346 423.5,-3310 480.5,-3310 480.5,-3346"/>
<text text-anchor="middle" x="452" y="-3325.2" font-family="Courier,monospace" font-size="11.00" fill="#000000">Entete</text>
</g>
<!-- \\App\\Views\\Common\\Footer -->
<g id="node10" class="node">
<title>\\App\\Views\\Common\\Footer</title>
<polygon fill="none" stroke="#000000" points="480.5,-3292 423.5,-3292 423.5,-3256 480.5,-3256 480.5,-3292"/>
<text text-anchor="middle" x="452" y="-3271.2" font-family="Courier,monospace" font-size="11.00" fill="#000000">Footer</text>
</g>
<!-- \\App\\Views\\TypesDocument\\CreateTypeDocument -->
<g id="node11" class="node">
<title>\\App\\Views\\TypesDocument\\CreateTypeDocument</title>
<polygon fill="none" stroke="#000000" points="521,-3212 383,-3212 383,-3176 521,-3176 521,-3212"/>
<text text-anchor="middle" x="452" y="-3191.2" font-family="Courier,monospace" font-size="11.00" fill="#000000">CreateTypeDocument</text>
</g>
<!-- \\App\\Views\\TypesDocument\\CreateTypeDocumentSuccess -->
<g id="node12" class="node">
<title>\\App\\Views\\TypesDocument\\CreateTypeDocumentSuccess</title>
<polygon fill="none" stroke="#000000" points="544.5,-3158 359.5,-3158 359.5,-3122 544.5,-3122 544.5,-3158"/>
<text text-anchor="middle" x="452" y="-3137.2" font-family="Courier,monospace" font-size="11.00" fill="#000000">CreateTypeDocumentSuccess</text>
</g>
<!-- \\App\\Views\\TypesDocument\\ListTypesDocument -->
<g id="node13" class="node">
<title>\\App\\Views\\TypesDocument\\ListTypesDocument</title>
<polygon fill="none" stroke="#000000" points="517.5,-3104 386.5,-3104 386.5,-3068 517.5,-3068 517.5,-3104"/>
<text text-anchor="middle" x="452" y="-3083.2" font-family="Courier,monospace" font-size="11.00" fill="#000000">ListTypesDocument</text>
</g>
<!-- \\App\\Views\\TypesDocument\\SearchTypeDocument -->
<g id="node14" class="node">
<title>\\App\\Views\\TypesDocument\\SearchTypeDocument</title>
<polygon fill="none" stroke="#000000" points="521,-3050 383,-3050 383,-3014 521,-3014 521,-3050"/>
<text text-anchor="middle" x="452" y="-3029.2" font-family="Courier,monospace" font-size="11.00" fill="#000000">SearchTypeDocument</text>
</g>
<!-- \\App\\Views\\TypesDocument\\DeleteTypeDocumentSuccess -->
<g id="node15" class="node">
<title>\\App\\Views\\TypesDocument\\DeleteTypeDocumentSuccess</title>
<polygon fill="none" stroke="#000000" points="544.5,-2996 359.5,-2996 359.5,-2960 544.5,-2960 544.5,-2996"/>
<text text-anchor="middle" x="452" y="-2975.2" font-family="Courier,monospace" font-size="11.00" fill="#000000">DeleteTypeDocumentSuccess</text>
</g>
<!-- \\App\\Views\\TypesDocument\\UpdateTypeDocumentSuccess -->
<g id="node16" class="node">
<title>\\App\\Views\\TypesDocument\\UpdateTypeDocumentSuccess</title>
<polygon fill="none" stroke="#000000" points="544.5,-2942 359.5,-2942 359.5,-2906 544.5,-2906 544.5,-2942"/>
<text text-anchor="middle" x="452" y="-2921.2" font-family="Courier,monospace" font-size="11.00" fill="#000000">UpdateTypeDocumentSuccess</text>
</g>
<!-- \\App\\Views\\TypesDocument\\DeleteTypeDocumentFaillure -->
<g id="node17" class="node">
<title>\\App\\Views\\TypesDocument\\DeleteTypeDocumentFaillure</title>
<polygon fill="none" stroke="#000000" points="548,-2888 356,-2888 356,-2852 548,-2852 548,-2888"/>
<text text-anchor="middle" x="452" y="-2867.2" font-family="Courier,monospace" font-size="11.00" fill="#000000">DeleteTypeDocumentFaillure</text>
</g>
<!-- \\App\\Views\\TypesDocument\\ShowTypeDocument -->
<g id="node18" class="node">
<title>\\App\\Views\\TypesDocument\\ShowTypeDocument</title>
<polygon fill="none" stroke="#000000" points="514.5,-2834 389.5,-2834 389.5,-2798 514.5,-2798 514.5,-2834"/>
<text text-anchor="middle" x="452" y="-2813.2" font-family="Courier,monospace" font-size="11.00" fill="#000000">ShowTypeDocument</text>
</g>
<!-- \\App\\Views\\TypesIndividu\\DeleteTypeIndividuFaillure -->
<g id="node19" class="node">
<title>\\App\\Views\\TypesIndividu\\DeleteTypeIndividuFaillure</title>
<polygon fill="none" stroke="#000000" points="548,-2754 356,-2754 356,-2718 548,-2718 548,-2754"/>
<text text-anchor="middle" x="452" y="-2733.2" font-family="Courier,monospace" font-size="11.00" fill="#000000">DeleteTypeIndividuFaillure</text>
</g>
<!-- \\App\\Views\\TypesIndividu\\UpdateTypeIndividuSuccess -->
<g id="node20" class="node">
<title>\\App\\Views\\TypesIndividu\\UpdateTypeIndividuSuccess</title>
<polygon fill="none" stroke="#000000" points="544.5,-2700 359.5,-2700 359.5,-2664 544.5,-2664 544.5,-2700"/>
<text text-anchor="middle" x="452" y="-2679.2" font-family="Courier,monospace" font-size="11.00" fill="#000000">UpdateTypeIndividuSuccess</text>
</g>
<!-- \\App\\Views\\TypesIndividu\\DeleteTypeIndividuSuccess -->
<g id="node21" class="node">
<title>\\App\\Views\\TypesIndividu\\DeleteTypeIndividuSuccess</title>
<polygon fill="none" stroke="#000000" points="544.5,-2646 359.5,-2646 359.5,-2610 544.5,-2610 544.5,-2646"/>
<text text-anchor="middle" x="452" y="-2625.2" font-family="Courier,monospace" font-size="11.00" fill="#000000">DeleteTypeIndividuSuccess</text>
</g>
<!-- \\App\\Views\\TypesIndividu\\CreateTypeIndividuSuccess -->
<g id="node22" class="node">
<title>\\App\\Views\\TypesIndividu\\CreateTypeIndividuSuccess</title>
<polygon fill="none" stroke="#000000" points="544.5,-2592 359.5,-2592 359.5,-2556 544.5,-2556 544.5,-2592"/>
<text text-anchor="middle" x="452" y="-2571.2" font-family="Courier,monospace" font-size="11.00" fill="#000000">CreateTypeIndividuSuccess</text>
</g>
<!-- \\App\\Views\\TypesIndividu\\ListTypesIndividu -->
<g id="node23" class="node">
<title>\\App\\Views\\TypesIndividu\\ListTypesIndividu</title>
<polygon fill="none" stroke="#000000" points="517.5,-2538 386.5,-2538 386.5,-2502 517.5,-2502 517.5,-2538"/>
<text text-anchor="middle" x="452" y="-2517.2" font-family="Courier,monospace" font-size="11.00" fill="#000000">ListTypesIndividu</text>
</g>
<!-- \\App\\Views\\TypesIndividu\\ShowTypeIndividu -->
<g id="node24" class="node">
<title>\\App\\Views\\TypesIndividu\\ShowTypeIndividu</title>
<polygon fill="none" stroke="#000000" points="514.5,-2484 389.5,-2484 389.5,-2448 514.5,-2448 514.5,-2484"/>
<text text-anchor="middle" x="452" y="-2463.2" font-family="Courier,monospace" font-size="11.00" fill="#000000">ShowTypeIndividu</text>
</g>
<!-- \\App\\Views\\TypesIndividu\\SearchTypeIndividu -->
<g id="node25" class="node">
<title>\\App\\Views\\TypesIndividu\\SearchTypeIndividu</title>
<polygon fill="none" stroke="#000000" points="521,-2430 383,-2430 383,-2394 521,-2394 521,-2430"/>
<text text-anchor="middle" x="452" y="-2409.2" font-family="Courier,monospace" font-size="11.00" fill="#000000">SearchTypeIndividu</text>
</g>
<!-- \\App\\Views\\TypesIndividu\\CreateTypeIndividu -->
<g id="node26" class="node">
<title>\\App\\Views\\TypesIndividu\\CreateTypeIndividu</title>
<polygon fill="none" stroke="#000000" points="521,-2376 383,-2376 383,-2340 521,-2340 521,-2376"/>
<text text-anchor="middle" x="452" y="-2355.2" font-family="Courier,monospace" font-size="11.00" fill="#000000">CreateTypeIndividu</text>
</g>
<!-- \\App\\Views\\Documents\\DeleteDocumentSuccess -->
<g id="node27" class="node">
<title>\\App\\Views\\Documents\\DeleteDocumentSuccess</title>
<polygon fill="none" stroke="#000000" points="531,-2296 373,-2296 373,-2260 531,-2260 531,-2296"/>
<text text-anchor="middle" x="452" y="-2275.2" font-family="Courier,monospace" font-size="11.00" fill="#000000">DeleteDocumentSuccess</text>
</g>
<!-- \\App\\Views\\Documents\\DeleteDocumentFaillure -->
<g id="node28" class="node">
<title>\\App\\Views\\Documents\\DeleteDocumentFaillure</title>
<polygon fill="none" stroke="#000000" points="534.5,-2242 369.5,-2242 369.5,-2206 534.5,-2206 534.5,-2242"/>
<text text-anchor="middle" x="452" y="-2221.2" font-family="Courier,monospace" font-size="11.00" fill="#000000">DeleteDocumentFaillure</text>
</g>
<!-- \\App\\Views\\Documents\\ShowDocument -->
<g id="node29" class="node">
<title>\\App\\Views\\Documents\\ShowDocument</title>
<polygon fill="none" stroke="#000000" points="501,-2188 403,-2188 403,-2152 501,-2152 501,-2188"/>
<text text-anchor="middle" x="452" y="-2167.2" font-family="Courier,monospace" font-size="11.00" fill="#000000">ShowDocument</text>
</g>
<!-- \\App\\Views\\Documents\\UploadDocumentSuccess -->
<g id="node30" class="node">
<title>\\App\\Views\\Documents\\UploadDocumentSuccess</title>
<polygon fill="none" stroke="#000000" points="531,-2134 373,-2134 373,-2098 531,-2098 531,-2134"/>
<text text-anchor="middle" x="452" y="-2113.2" font-family="Courier,monospace" font-size="11.00" fill="#000000">UploadDocumentSuccess</text>
</g>
<!-- \\App\\Views\\Documents\\SearchDocument -->
<g id="node31" class="node">
<title>\\App\\Views\\Documents\\SearchDocument</title>
<polygon fill="none" stroke="#000000" points="507.5,-2080 396.5,-2080 396.5,-2044 507.5,-2044 507.5,-2080"/>
<text text-anchor="middle" x="452" y="-2059.2" font-family="Courier,monospace" font-size="11.00" fill="#000000">SearchDocument</text>
</g>
<!-- \\App\\Views\\Documents\\UploadDocument -->
<g id="node32" class="node">
<title>\\App\\Views\\Documents\\UploadDocument</title>
<polygon fill="none" stroke="#000000" points="507.5,-2026 396.5,-2026 396.5,-1990 507.5,-1990 507.5,-2026"/>
<text text-anchor="middle" x="452" y="-2005.2" font-family="Courier,monospace" font-size="11.00" fill="#000000">UploadDocument</text>
</g>
<!-- \\App\\Views\\Individus\\ShowIndividu -->
<g id="node33" class="node">
<title>\\App\\Views\\Individus\\ShowIndividu</title>
<polygon fill="none" stroke="#000000" points="501,-1946 403,-1946 403,-1910 501,-1910 501,-1946"/>
<text text-anchor="middle" x="452" y="-1925.2" font-family="Courier,monospace" font-size="11.00" fill="#000000">ShowIndividu</text>
</g>
<!-- \\App\\Views\\Individus\\CreateIndividuSucces -->
<g id="node34" class="node">
<title>\\App\\Views\\Individus\\CreateIndividuSucces</title>
<polygon fill="none" stroke="#000000" points="528,-1892 376,-1892 376,-1856 528,-1856 528,-1892"/>
<text text-anchor="middle" x="452" y="-1871.2" font-family="Courier,monospace" font-size="11.00" fill="#000000">CreateIndividuSucces</text>
</g>
<!-- \\App\\Views\\Individus\\CreateIndividuFaillure -->
<g id="node35" class="node">
<title>\\App\\Views\\Individus\\CreateIndividuFaillure</title>
<polygon fill="none" stroke="#000000" points="534.5,-1838 369.5,-1838 369.5,-1802 534.5,-1802 534.5,-1838"/>
<text text-anchor="middle" x="452" y="-1817.2" font-family="Courier,monospace" font-size="11.00" fill="#000000">CreateIndividuFaillure</text>
</g>
<!-- \\App\\Views\\Individus\\ListIndicvidu -->
<g id="node36" class="node">
<title>\\App\\Views\\Individus\\ListIndicvidu</title>
<polygon fill="none" stroke="#000000" points="504,-1784 400,-1784 400,-1748 504,-1748 504,-1784"/>
<text text-anchor="middle" x="452" y="-1763.2" font-family="Courier,monospace" font-size="11.00" fill="#000000">ListIndicvidu</text>
</g>
<!-- \\App\\Views\\Individus\\UpdateIndividuSuccess -->
<g id="node37" class="node">
<title>\\App\\Views\\Individus\\UpdateIndividuSuccess</title>
<polygon fill="none" stroke="#000000" points="531,-1730 373,-1730 373,-1694 531,-1694 531,-1730"/>
<text text-anchor="middle" x="452" y="-1709.2" font-family="Courier,monospace" font-size="11.00" fill="#000000">UpdateIndividuSuccess</text>
</g>
<!-- \\App\\Views\\Individus\\CreateIndividu -->
<g id="node38" class="node">
<title>\\App\\Views\\Individus\\CreateIndividu</title>
<polygon fill="none" stroke="#000000" points="507.5,-1676 396.5,-1676 396.5,-1640 507.5,-1640 507.5,-1676"/>
<text text-anchor="middle" x="452" y="-1655.2" font-family="Courier,monospace" font-size="11.00" fill="#000000">CreateIndividu</text>
</g>
<!-- \\App\\Views\\Individus\\DeleteIndividuSuccess -->
<g id="node39" class="node">
<title>\\App\\Views\\Individus\\DeleteIndividuSuccess</title>
<polygon fill="none" stroke="#000000" points="531,-1622 373,-1622 373,-1586 531,-1586 531,-1622"/>
<text text-anchor="middle" x="452" y="-1601.2" font-family="Courier,monospace" font-size="11.00" fill="#000000">DeleteIndividuSuccess</text>
</g>
<!-- \\App\\Views\\Individus\\SearchIndividu -->
<g id="node40" class="node">
<title>\\App\\Views\\Individus\\SearchIndividu</title>
<polygon fill="none" stroke="#000000" points="507.5,-1568 396.5,-1568 396.5,-1532 507.5,-1532 507.5,-1568"/>
<text text-anchor="middle" x="452" y="-1547.2" font-family="Courier,monospace" font-size="11.00" fill="#000000">SearchIndividu</text>
</g>
<!-- \\App\\Views\\Users\\SearchUser -->
<g id="node41" class="node">
<title>\\App\\Views\\Users\\SearchUser</title>
<polygon fill="none" stroke="#000000" points="494,-1488 410,-1488 410,-1452 494,-1452 494,-1488"/>
<text text-anchor="middle" x="452" y="-1467.2" font-family="Courier,monospace" font-size="11.00" fill="#000000">SearchUser</text>
</g>
<!-- \\App\\Views\\Users\\ShowUser -->
<g id="node42" class="node">
<title>\\App\\Views\\Users\\ShowUser</title>
<polygon fill="none" stroke="#000000" points="487.5,-1434 416.5,-1434 416.5,-1398 487.5,-1398 487.5,-1434"/>
<text text-anchor="middle" x="452" y="-1413.2" font-family="Courier,monospace" font-size="11.00" fill="#000000">ShowUser</text>
</g>
<!-- \\App\\Views\\Users\\ListUsers -->
<g id="node43" class="node">
<title>\\App\\Views\\Users\\ListUsers</title>
<polygon fill="none" stroke="#000000" points="490.5,-1380 413.5,-1380 413.5,-1344 490.5,-1344 490.5,-1380"/>
<text text-anchor="middle" x="452" y="-1359.2" font-family="Courier,monospace" font-size="11.00" fill="#000000">ListUsers</text>
</g>
<!-- \\App\\Views\\Users\\CreateUserSuccess -->
<g id="node44" class="node">
<title>\\App\\Views\\Users\\CreateUserSuccess</title>
<polygon fill="none" stroke="#000000" points="517.5,-1326 386.5,-1326 386.5,-1290 517.5,-1290 517.5,-1326"/>
<text text-anchor="middle" x="452" y="-1305.2" font-family="Courier,monospace" font-size="11.00" fill="#000000">CreateUserSuccess</text>
</g>
<!-- \\App\\Views\\Users\\UpdateUserSuccess -->
<g id="node45" class="node">
<title>\\App\\Views\\Users\\UpdateUserSuccess</title>
<polygon fill="none" stroke="#000000" points="517.5,-1272 386.5,-1272 386.5,-1236 517.5,-1236 517.5,-1272"/>
<text text-anchor="middle" x="452" y="-1251.2" font-family="Courier,monospace" font-size="11.00" fill="#000000">UpdateUserSuccess</text>
</g>
<!-- \\App\\Views\\Users\\CreateUser -->
<g id="node46" class="node">
<title>\\App\\Views\\Users\\CreateUser</title>
<polygon fill="none" stroke="#000000" points="494,-1218 410,-1218 410,-1182 494,-1182 494,-1218"/>
<text text-anchor="middle" x="452" y="-1197.2" font-family="Courier,monospace" font-size="11.00" fill="#000000">CreateUser</text>
</g>
<!-- \\App\\Views\\Users\\DeleteUserSuccess -->
<g id="node47" class="node">
<title>\\App\\Views\\Users\\DeleteUserSuccess</title>
<polygon fill="none" stroke="#000000" points="517.5,-1164 386.5,-1164 386.5,-1128 517.5,-1128 517.5,-1164"/>
<text text-anchor="middle" x="452" y="-1143.2" font-family="Courier,monospace" font-size="11.00" fill="#000000">DeleteUserSuccess</text>
</g>
<!-- \\App\\Views\\Users\\DeleteUserFaillure -->
<g id="node48" class="node">
<title>\\App\\Views\\Users\\DeleteUserFaillure</title>
<polygon fill="none" stroke="#000000" points="521,-1110 383,-1110 383,-1074 521,-1074 521,-1110"/>
<text text-anchor="middle" x="452" y="-1089.2" font-family="Courier,monospace" font-size="11.00" fill="#000000">DeleteUserFaillure</text>
</g>
<!-- \\App\\Views\\Home\\Index -->
<g id="node49" class="node">
<title>\\App\\Views\\Home\\Index</title>
<polygon fill="none" stroke="#000000" points="479,-1030 425,-1030 425,-994 479,-994 479,-1030"/>
<text text-anchor="middle" x="452" y="-1009.2" font-family="Courier,monospace" font-size="11.00" fill="#000000">Index</text>
</g>
<!-- \\App\\Views\\Login\\News -->
<g id="node50" class="node">
<title>\\App\\Views\\Login\\News</title>
<polygon fill="none" stroke="#000000" points="479,-950 425,-950 425,-914 479,-914 479,-950"/>
<text text-anchor="middle" x="452" y="-929.2" font-family="Courier,monospace" font-size="11.00" fill="#000000">News</text>
</g>
<!-- \\App\\Views\\Error500 -->
<g id="node51" class="node">
<title>\\App\\Views\\Error500</title>
<polygon fill="none" stroke="#000000" points="487.5,-896 416.5,-896 416.5,-860 487.5,-860 487.5,-896"/>
<text text-anchor="middle" x="452" y="-875.2" font-family="Courier,monospace" font-size="11.00" fill="#000000">Error500</text>
</g>
<!-- \\App\\Views\\Error404 -->
<g id="node52" class="node">
<title>\\App\\Views\\Error404</title>
<polygon fill="none" stroke="#000000" points="487.5,-842 416.5,-842 416.5,-806 487.5,-806 487.5,-842"/>
<text text-anchor="middle" x="452" y="-821.2" font-family="Courier,monospace" font-size="11.00" fill="#000000">Error404</text>
</g>
<!-- \\App\\Controllers\\Account -->
<g id="node53" class="node">
<title>\\App\\Controllers\\Account</title>
<polygon fill="none" stroke="#000000" points="484,-600 420,-600 420,-564 484,-564 484,-600"/>
<text text-anchor="middle" x="452" y="-579.2" font-family="Courier,monospace" font-size="11.00" fill="#000000">Account</text>
</g>
<!-- \\Core\\Controller -->
<g id="node72" class="node">
<title>\\Core\\Controller</title>
<polygon fill="none" stroke="#000000" points="108,-708 24,-708 24,-672 108,-672 108,-708"/>
<text text-anchor="start" x="32" y="-693.2" font-family="Courier,monospace" font-size="11.00" fill="#000000">«abstract»</text>
<text text-anchor="start" x="32" y="-681.2" font-family="Courier,monospace" font-size="11.00" fill="#000000">Controller</text>
</g>
<!-- \\App\\Controllers\\Account&#45;&gt;\\Core\\Controller -->
<g id="edge3" class="edge">
<title>\\App\\Controllers\\Account&#45;&gt;\\Core\\Controller</title>
<path fill="none" stroke="#000000" d="M419.9488,-586.1778C396.9004,-590.0162 365.5155,-596.9869 340,-609 285.7157,-634.558 291.8882,-686.3388 232,-690"/>
<path fill="none" stroke="#000000" d="M232,-690C193.9736,-692.3247 150.9557,-692.2486 118.241,-691.6312"/>
<polygon fill="none" stroke="#000000" points="118.0728,-688.1269 108.0008,-691.4141 117.9243,-695.1253 118.0728,-688.1269"/>
</g>
<!-- \\App\\Controllers\\TypesDocument -->
<g id="node54" class="node">
<title>\\App\\Controllers\\TypesDocument</title>
<polygon fill="none" stroke="#000000" points="504,-384 400,-384 400,-348 504,-348 504,-384"/>
<text text-anchor="middle" x="452" y="-363.2" font-family="Courier,monospace" font-size="11.00" fill="#000000">TypesDocument</text>
</g>
<!-- \\App\\Controllers\\Authenticated -->
<g id="node61" class="node">
<title>\\App\\Controllers\\Authenticated</title>
<polygon fill="none" stroke="#000000" points="284,-465 180,-465 180,-429 284,-429 284,-465"/>
<text text-anchor="start" x="198" y="-450.2" font-family="Courier,monospace" font-size="11.00" fill="#000000">«abstract»</text>
<text text-anchor="start" x="188" y="-438.2" font-family="Courier,monospace" font-size="11.00" fill="#000000">Authenticated</text>
</g>
<!-- \\App\\Controllers\\TypesDocument&#45;&gt;\\App\\Controllers\\Authenticated -->
<g id="edge4" class="edge">
<title>\\App\\Controllers\\TypesDocument&#45;&gt;\\App\\Controllers\\Authenticated</title>
<path fill="none" stroke="#000000" d="M399.9771,-375.9599C380.8368,-380.2947 359.1639,-386.0024 340,-393 316.7764,-401.48 292.029,-413.6075 272.0907,-424.222"/>
<polygon fill="none" stroke="#000000" points="270.427,-421.1426 263.291,-428.9739 273.7531,-427.3019 270.427,-421.1426"/>
</g>
<!-- \\App\\Controllers\\Users -->
<g id="node55" class="node">
<title>\\App\\Controllers\\Users</title>
<polygon fill="none" stroke="#000000" points="479,-330 425,-330 425,-294 479,-294 479,-330"/>
<text text-anchor="middle" x="452" y="-309.2" font-family="Courier,monospace" font-size="11.00" fill="#000000">Users</text>
</g>
<!-- \\App\\Controllers\\Users&#45;&gt;\\App\\Controllers\\Authenticated -->
<g id="edge6" class="edge">
<title>\\App\\Controllers\\Users&#45;&gt;\\App\\Controllers\\Authenticated</title>
<path fill="none" stroke="#000000" d="M424.6954,-314.3864C401.031,-317.4015 366.5189,-324.1324 340,-339 303.4265,-359.5047 270.8296,-395.8834 251.2505,-420.7031"/>
<polygon fill="none" stroke="#000000" points="248.4651,-418.5836 245.1227,-428.6375 254.0052,-422.8624 248.4651,-418.5836"/>
</g>
<!-- \\App\\Controllers\\Individus -->
<g id="node56" class="node">
<title>\\App\\Controllers\\Individus</title>
<polygon fill="none" stroke="#000000" points="490.5,-546 413.5,-546 413.5,-510 490.5,-510 490.5,-546"/>
<text text-anchor="middle" x="452" y="-525.2" font-family="Courier,monospace" font-size="11.00" fill="#000000">Individus</text>
</g>
<!-- \\App\\Controllers\\Individus&#45;&gt;\\App\\Controllers\\Authenticated -->
<g id="edge7" class="edge">
<title>\\App\\Controllers\\Individus&#45;&gt;\\App\\Controllers\\Authenticated</title>
<path fill="none" stroke="#000000" d="M413.2611,-520.9249C391.3931,-516.3728 363.767,-509.6784 340,-501 316.7764,-492.52 292.029,-480.3925 272.0907,-469.778"/>
<polygon fill="none" stroke="#000000" points="273.7531,-466.6981 263.291,-465.0261 270.427,-472.8574 273.7531,-466.6981"/>
</g>
<!-- \\App\\Controllers\\Home -->
<g id="node57" class="node">
<title>\\App\\Controllers\\Home</title>
<polygon fill="none" stroke="#000000" points="479,-654 425,-654 425,-618 479,-618 479,-654"/>
<text text-anchor="middle" x="452" y="-633.2" font-family="Courier,monospace" font-size="11.00" fill="#000000">Home</text>
</g>
<!-- \\App\\Controllers\\Home&#45;&gt;\\Core\\Controller -->
<g id="edge9" class="edge">
<title>\\App\\Controllers\\Home&#45;&gt;\\Core\\Controller</title>
<path fill="none" stroke="#000000" d="M424.8262,-642.4832C402.1353,-647.913 368.9426,-655.8937 340,-663 291.9499,-674.7978 281.3851,-686.9809 232,-690"/>
</g>
<!-- \\App\\Controllers\\Signup -->
<g id="node58" class="node">
<title>\\App\\Controllers\\Signup</title>
<polygon fill="none" stroke="#000000" points="480.5,-708 423.5,-708 423.5,-672 480.5,-672 480.5,-708"/>
<text text-anchor="middle" x="452" y="-687.2" font-family="Courier,monospace" font-size="11.00" fill="#000000">Signup</text>
</g>
<!-- \\App\\Controllers\\Signup&#45;&gt;\\Core\\Controller -->
<g id="edge11" class="edge">
<title>\\App\\Controllers\\Signup&#45;&gt;\\Core\\Controller</title>
<path fill="none" stroke="#000000" d="M423.4876,-688.8908C381.5089,-687.5091 300.6219,-685.8048 232,-690"/>
</g>
<!-- \\App\\Controllers\\TypesIndividu -->
<g id="node59" class="node">
<title>\\App\\Controllers\\TypesIndividu</title>
<polygon fill="none" stroke="#000000" points="504,-492 400,-492 400,-456 504,-456 504,-492"/>
<text text-anchor="middle" x="452" y="-471.2" font-family="Courier,monospace" font-size="11.00" fill="#000000">TypesIndividu</text>
</g>
<!-- \\App\\Controllers\\TypesIndividu&#45;&gt;\\App\\Controllers\\Authenticated -->
<g id="edge12" class="edge">
<title>\\App\\Controllers\\TypesIndividu&#45;&gt;\\App\\Controllers\\Authenticated</title>
<path fill="none" stroke="#000000" d="M399.8631,-467.6014C368.1962,-463.715 327.5855,-458.7309 294.2406,-454.6386"/>
<polygon fill="none" stroke="#000000" points="294.4954,-451.1437 284.1435,-453.3994 293.6426,-458.0916 294.4954,-451.1437"/>
</g>
<!-- \\App\\Controllers\\Login -->
<g id="node60" class="node">
<title>\\App\\Controllers\\Login</title>
<polygon fill="none" stroke="#000000" points="479,-762 425,-762 425,-726 479,-726 479,-762"/>
<text text-anchor="middle" x="452" y="-741.2" font-family="Courier,monospace" font-size="11.00" fill="#000000">Login</text>
</g>
<!-- \\App\\Controllers\\Login&#45;&gt;\\Core\\Controller -->
<g id="edge13" class="edge">
<title>\\App\\Controllers\\Login&#45;&gt;\\Core\\Controller</title>
<path fill="none" stroke="#000000" d="M424.8262,-737.5168C402.1353,-732.087 368.9426,-724.1063 340,-717 291.9499,-705.2022 281.3851,-686.9809 232,-690"/>
</g>
<!-- \\App\\Controllers\\Authenticated&#45;&gt;\\Core\\Controller -->
<g id="edge14" class="edge">
<title>\\App\\Controllers\\Authenticated&#45;&gt;\\Core\\Controller</title>
<path fill="none" stroke="#000000" d="M219.523,-465.2645C190.4308,-507.8513 118.0018,-613.8769 84.0727,-663.5442"/>
<polygon fill="none" stroke="#000000" points="81.1461,-661.6235 78.3953,-671.855 86.9262,-665.5721 81.1461,-661.6235"/>
</g>
<!-- \\App\\Controllers\\Documents -->
<g id="node62" class="node">
<title>\\App\\Controllers\\Documents</title>
<polygon fill="none" stroke="#000000" points="490.5,-438 413.5,-438 413.5,-402 490.5,-402 490.5,-438"/>
<text text-anchor="middle" x="452" y="-417.2" font-family="Courier,monospace" font-size="11.00" fill="#000000">Documents</text>
</g>
<!-- \\App\\Controllers\\Documents&#45;&gt;\\App\\Controllers\\Authenticated -->
<g id="edge16" class="edge">
<title>\\App\\Controllers\\Documents&#45;&gt;\\App\\Controllers\\Authenticated</title>
<path fill="none" stroke="#000000" d="M413.4272,-424.7339C380.5082,-428.774 332.5532,-434.6594 294.2127,-439.3648"/>
<polygon fill="none" stroke="#000000" points="293.6813,-435.9037 284.1821,-440.5958 294.534,-442.8515 293.6813,-435.9037"/>
</g>
<!-- \\App\\Config -->
<g id="node63" class="node">
<title>\\App\\Config</title>
<polygon fill="none" stroke="#000000" points="480.5,-276 423.5,-276 423.5,-240 480.5,-240 480.5,-276"/>
<text text-anchor="middle" x="452" y="-255.2" font-family="Courier,monospace" font-size="11.00" fill="#000000">Config</text>
</g>
<!-- \\App\\Uploader -->
<g id="node64" class="node">
<title>\\App\\Uploader</title>
<polygon fill="none" stroke="#000000" points="487.5,-222 416.5,-222 416.5,-186 487.5,-186 487.5,-222"/>
<text text-anchor="middle" x="452" y="-201.2" font-family="Courier,monospace" font-size="11.00" fill="#000000">Uploader</text>
</g>
<!-- \\App\\Flash -->
<g id="node65" class="node">
<title>\\App\\Flash</title>
<polygon fill="none" stroke="#000000" points="479,-168 425,-168 425,-132 479,-132 479,-168"/>
<text text-anchor="middle" x="452" y="-147.2" font-family="Courier,monospace" font-size="11.00" fill="#000000">Flash</text>
</g>
<!-- \\App\\Auth -->
<g id="node66" class="node">
<title>\\App\\Auth</title>
<polygon fill="none" stroke="#000000" points="479,-114 425,-114 425,-78 479,-78 479,-114"/>
<text text-anchor="middle" x="452" y="-93.2" font-family="Courier,monospace" font-size="11.00" fill="#000000">Auth</text>
</g>
<!-- \\App\\Token -->
<g id="node67" class="node">
<title>\\App\\Token</title>
<polygon fill="none" stroke="#000000" points="479,-60 425,-60 425,-24 479,-24 479,-60"/>
<text text-anchor="middle" x="452" y="-39.2" font-family="Courier,monospace" font-size="11.00" fill="#000000">Token</text>
</g>
<!-- \\Core\\Error -->
<g id="node68" class="node">
<title>\\Core\\Error</title>
<polygon fill="none" stroke="#000000" points="93,-924 39,-924 39,-888 93,-888 93,-924"/>
<text text-anchor="middle" x="66" y="-903.2" font-family="Courier,monospace" font-size="11.00" fill="#000000">Error</text>
</g>
<!-- \\Core\\Router -->
<g id="node69" class="node">
<title>\\Core\\Router</title>
<polygon fill="none" stroke="#000000" points="94.5,-870 37.5,-870 37.5,-834 94.5,-834 94.5,-870"/>
<text text-anchor="middle" x="66" y="-849.2" font-family="Courier,monospace" font-size="11.00" fill="#000000">Router</text>
</g>
<!-- \\Core\\View -->
<g id="node70" class="node">
<title>\\Core\\View</title>
<polygon fill="none" stroke="#000000" points="93,-816 39,-816 39,-780 93,-780 93,-816"/>
<text text-anchor="middle" x="66" y="-795.2" font-family="Courier,monospace" font-size="11.00" fill="#000000">View</text>
</g>
</g>
</svg>
