<?xml version="1.0" encoding="UTF-8" standalone="no"?>
<!DOCTYPE svg PUBLIC "-//W3C//DTD SVG 1.1//EN"
 "http://www.w3.org/Graphics/SVG/1.1/DTD/svg11.dtd">
<!-- Generated by graphviz version 2.40.1 (20161225.0304)
 -->
<!-- Title: G Pages: 1 -->
<svg width="448pt" height="4336pt"
 viewBox="0.00 0.00 448.00 4336.00" xmlns="http://www.w3.org/2000/svg" xmlns:xlink="http://www.w3.org/1999/xlink">
<g id="graph0" class="graph" transform="scale(1 1) rotate(0) translate(4 4332)">
<title>G</title>
<polygon fill="#ffffff" stroke="transparent" points="-4,4 -4,-4332 444,-4332 444,4 -4,4"/>
<g id="clust1" class="cluster">
<title>cluster_Global</title>
<path fill="none" stroke="#c0c0c0" d="M20,-8C20,-8 420,-8 420,-8 426,-8 432,-14 432,-20 432,-20 432,-4308 432,-4308 432,-4314 426,-4320 420,-4320 420,-4320 20,-4320 20,-4320 14,-4320 8,-4314 8,-4308 8,-4308 8,-20 8,-20 8,-14 14,-8 20,-8"/>
<text text-anchor="middle" x="220" y="-4307.2" font-family="Times,serif" font-size="11.00" fill="#c0c0c0">Global</text>
</g>
<g id="clust2" class="cluster">
<title>cluster_\App</title>
<path fill="none" stroke="#c0c0c0" d="M28,-16C28,-16 412,-16 412,-16 418,-16 424,-22 424,-28 424,-28 424,-3984 424,-3984 424,-3990 418,-3996 412,-3996 412,-3996 28,-3996 28,-3996 22,-3996 16,-3990 16,-3984 16,-3984 16,-28 16,-28 16,-22 22,-16 28,-16"/>
<text text-anchor="middle" x="220" y="-3983.2" font-family="Times,serif" font-size="11.00" fill="#c0c0c0">App</text>
</g>
<g id="clust3" class="cluster">
<title>cluster_\App\Controllers</title>
<path fill="none" stroke="#c0c0c0" d="M36,-3464C36,-3464 352,-3464 352,-3464 358,-3464 364,-3470 364,-3476 364,-3476 364,-3956 364,-3956 364,-3962 358,-3968 352,-3968 352,-3968 36,-3968 36,-3968 30,-3968 24,-3962 24,-3956 24,-3956 24,-3476 24,-3476 24,-3470 30,-3464 36,-3464"/>
<text text-anchor="middle" x="194" y="-3955.2" font-family="Times,serif" font-size="11.00" fill="#c0c0c0">Controllers</text>
</g>
<g id="clust4" class="cluster">
<title>cluster_\App\Views</title>
<path fill="none" stroke="#c0c0c0" d="M204,-744C204,-744 404,-744 404,-744 410,-744 416,-750 416,-756 416,-756 416,-3444 416,-3444 416,-3450 410,-3456 404,-3456 404,-3456 204,-3456 204,-3456 198,-3456 192,-3450 192,-3444 192,-3444 192,-756 192,-756 192,-750 198,-744 204,-744"/>
<text text-anchor="middle" x="304" y="-3443.2" font-family="Times,serif" font-size="11.00" fill="#c0c0c0">Views</text>
</g>
<g id="clust5" class="cluster">
<title>cluster_\App\Views\Documents</title>
<path fill="none" stroke="#c0c0c0" d="M225.5,-3086C225.5,-3086 382.5,-3086 382.5,-3086 388.5,-3086 394.5,-3092 394.5,-3098 394.5,-3098 394.5,-3416 394.5,-3416 394.5,-3422 388.5,-3428 382.5,-3428 382.5,-3428 225.5,-3428 225.5,-3428 219.5,-3428 213.5,-3422 213.5,-3416 213.5,-3416 213.5,-3098 213.5,-3098 213.5,-3092 219.5,-3086 225.5,-3086"/>
<text text-anchor="middle" x="304" y="-3415.2" font-family="Times,serif" font-size="11.00" fill="#c0c0c0">Documents</text>
</g>
<g id="clust6" class="cluster">
<title>cluster_\App\Views\TypesIndividu</title>
<path fill="none" stroke="#c0c0c0" d="M212,-2628C212,-2628 396,-2628 396,-2628 402,-2628 408,-2634 408,-2640 408,-2640 408,-3066 408,-3066 408,-3072 402,-3078 396,-3078 396,-3078 212,-3078 212,-3078 206,-3078 200,-3072 200,-3066 200,-3066 200,-2640 200,-2640 200,-2634 206,-2628 212,-2628"/>
<text text-anchor="middle" x="304" y="-3065.2" font-family="Times,serif" font-size="11.00" fill="#c0c0c0">TypesIndividu</text>
</g>
<g id="clust7" class="cluster">
<title>cluster_\App\Views\Login</title>
<path fill="none" stroke="#c0c0c0" d="M281,-2548C281,-2548 327,-2548 327,-2548 333,-2548 339,-2554 339,-2560 339,-2560 339,-2608 339,-2608 339,-2614 333,-2620 327,-2620 327,-2620 281,-2620 281,-2620 275,-2620 269,-2614 269,-2608 269,-2608 269,-2560 269,-2560 269,-2554 275,-2548 281,-2548"/>
<text text-anchor="middle" x="304" y="-2607.2" font-family="Times,serif" font-size="11.00" fill="#c0c0c0">Login</text>
</g>
<g id="clust8" class="cluster">
<title>cluster_\App\Views\Home</title>
<path fill="none" stroke="#c0c0c0" d="M281,-2468C281,-2468 327,-2468 327,-2468 333,-2468 339,-2474 339,-2480 339,-2480 339,-2528 339,-2528 339,-2534 333,-2540 327,-2540 327,-2540 281,-2540 281,-2540 275,-2540 269,-2534 269,-2528 269,-2528 269,-2480 269,-2480 269,-2474 275,-2468 281,-2468"/>
<text text-anchor="middle" x="304" y="-2527.2" font-family="Times,serif" font-size="11.00" fill="#c0c0c0">Home</text>
</g>
<g id="clust9" class="cluster">
<title>cluster_\App\Views\Individus</title>
<path fill="none" stroke="#c0c0c0" d="M225.5,-2010C225.5,-2010 382.5,-2010 382.5,-2010 388.5,-2010 394.5,-2016 394.5,-2022 394.5,-2022 394.5,-2448 394.5,-2448 394.5,-2454 388.5,-2460 382.5,-2460 382.5,-2460 225.5,-2460 225.5,-2460 219.5,-2460 213.5,-2454 213.5,-2448 213.5,-2448 213.5,-2022 213.5,-2022 213.5,-2016 219.5,-2010 225.5,-2010"/>
<text text-anchor="middle" x="304" y="-2447.2" font-family="Times,serif" font-size="11.00" fill="#c0c0c0">Individus</text>
</g>
<g id="clust10" class="cluster">
<title>cluster_\App\Views\Users</title>
<path fill="none" stroke="#c0c0c0" d="M239,-1552C239,-1552 369,-1552 369,-1552 375,-1552 381,-1558 381,-1564 381,-1564 381,-1990 381,-1990 381,-1996 375,-2002 369,-2002 369,-2002 239,-2002 239,-2002 233,-2002 227,-1996 227,-1990 227,-1990 227,-1564 227,-1564 227,-1558 233,-1552 239,-1552"/>
<text text-anchor="middle" x="304" y="-1989.2" font-family="Times,serif" font-size="11.00" fill="#c0c0c0">Users</text>
</g>
<g id="clust11" class="cluster">
<title>cluster_\App\Views\Common</title>
<path fill="none" stroke="#c0c0c0" d="M279.5,-1310C279.5,-1310 328.5,-1310 328.5,-1310 334.5,-1310 340.5,-1316 340.5,-1322 340.5,-1322 340.5,-1532 340.5,-1532 340.5,-1538 334.5,-1544 328.5,-1544 328.5,-1544 279.5,-1544 279.5,-1544 273.5,-1544 267.5,-1538 267.5,-1532 267.5,-1532 267.5,-1322 267.5,-1322 267.5,-1316 273.5,-1310 279.5,-1310"/>
<text text-anchor="middle" x="304" y="-1531.2" font-family="Times,serif" font-size="11.00" fill="#c0c0c0">Common</text>
</g>
<g id="clust12" class="cluster">
<title>cluster_\App\Views\TypesDocument</title>
<path fill="none" stroke="#c0c0c0" d="M212,-852C212,-852 396,-852 396,-852 402,-852 408,-858 408,-864 408,-864 408,-1290 408,-1290 408,-1296 402,-1302 396,-1302 396,-1302 212,-1302 212,-1302 206,-1302 200,-1296 200,-1290 200,-1290 200,-864 200,-864 200,-858 206,-852 212,-852"/>
<text text-anchor="middle" x="304" y="-1289.2" font-family="Times,serif" font-size="11.00" fill="#c0c0c0">TypesDocument</text>
</g>
<g id="clust13" class="cluster">
<title>cluster_\App\Models</title>
<path fill="none" stroke="#c0c0c0" d="M249,-340C249,-340 359,-340 359,-340 365,-340 371,-346 371,-352 371,-352 371,-724 371,-724 371,-730 365,-736 359,-736 359,-736 249,-736 249,-736 243,-736 237,-730 237,-724 237,-724 237,-352 237,-352 237,-346 243,-340 249,-340"/>
<text text-anchor="middle" x="304" y="-723.2" font-family="Times,serif" font-size="11.00" fill="#c0c0c0">Models</text>
</g>
<g id="clust14" class="cluster">
<title>cluster_\Core</title>
<path fill="none" stroke="#c0c0c0" d="M46,-4004C46,-4004 122,-4004 122,-4004 128,-4004 134,-4010 134,-4016 134,-4016 134,-4280 134,-4280 134,-4286 128,-4292 122,-4292 122,-4292 46,-4292 46,-4292 40,-4292 34,-4286 34,-4280 34,-4280 34,-4016 34,-4016 34,-4010 40,-4004 46,-4004"/>
<text text-anchor="middle" x="84" y="-4279.2" font-family="Times,serif" font-size="11.00" fill="#c0c0c0">Core</text>
</g>
<!-- \\App\\Controllers\\TypesDocument -->
<g id="node1" class="node">
<title>\\App\\Controllers\\TypesDocument</title>
<polygon fill="none" stroke="#000000" points="356,-3508 252,-3508 252,-3472 356,-3472 356,-3508"/>
<text text-anchor="middle" x="304" y="-3487.2" font-family="Courier,monospace" font-size="11.00" fill="#000000">TypesDocument</text>
</g>
<!-- \\App\\Controllers\\Authenticated -->
<g id="node9" class="node">
<title>\\App\\Controllers\\Authenticated</title>
<polygon fill="none" stroke="#000000" points="136,-3643 32,-3643 32,-3607 136,-3607 136,-3643"/>
<text text-anchor="start" x="50" y="-3628.2" font-family="Courier,monospace" font-size="11.00" fill="#000000">«abstract»</text>
<text text-anchor="start" x="40" y="-3616.2" font-family="Courier,monospace" font-size="11.00" fill="#000000">Authenticated</text>
</g>
<!-- \\App\\Controllers\\TypesDocument&#45;&gt;\\App\\Controllers\\Authenticated -->
<g id="edge1" class="edge">
<title>\\App\\Controllers\\TypesDocument&#45;&gt;\\App\\Controllers\\Authenticated</title>
<path fill="none" stroke="#000000" d="M251.9069,-3496.4366C232.2415,-3500.4029 210.2317,-3506.7785 192,-3517 155.4265,-3537.5047 122.8296,-3573.8834 103.2505,-3598.7031"/>
<polygon fill="none" stroke="#000000" points="100.4651,-3596.5836 97.1227,-3606.6375 106.0052,-3600.8624 100.4651,-3596.5836"/>
</g>
<!-- \\App\\Controllers\\Individus -->
<g id="node2" class="node">
<title>\\App\\Controllers\\Individus</title>
<polygon fill="none" stroke="#000000" points="342.5,-3724 265.5,-3724 265.5,-3688 342.5,-3688 342.5,-3724"/>
<text text-anchor="middle" x="304" y="-3703.2" font-family="Courier,monospace" font-size="11.00" fill="#000000">Individus</text>
</g>
<!-- \\App\\Controllers\\Individus&#45;&gt;\\App\\Controllers\\Authenticated -->
<g id="edge2" class="edge">
<title>\\App\\Controllers\\Individus&#45;&gt;\\App\\Controllers\\Authenticated</title>
<path fill="none" stroke="#000000" d="M265.2611,-3698.9249C243.3931,-3694.3728 215.767,-3687.6784 192,-3679 168.7764,-3670.52 144.029,-3658.3925 124.0907,-3647.778"/>
<polygon fill="none" stroke="#000000" points="125.7531,-3644.6981 115.291,-3643.0261 122.427,-3650.8574 125.7531,-3644.6981"/>
</g>
<!-- \\App\\Controllers\\Login -->
<g id="node3" class="node">
<title>\\App\\Controllers\\Login</title>
<polygon fill="none" stroke="#000000" points="331,-3832 277,-3832 277,-3796 331,-3796 331,-3832"/>
<text text-anchor="middle" x="304" y="-3811.2" font-family="Courier,monospace" font-size="11.00" fill="#000000">Login</text>
</g>
<!-- \\Core\\Controller -->
<g id="node71" class="node">
<title>\\Core\\Controller</title>
<polygon fill="none" stroke="#000000" points="126,-4210 42,-4210 42,-4174 126,-4174 126,-4210"/>
<text text-anchor="start" x="50" y="-4195.2" font-family="Courier,monospace" font-size="11.00" fill="#000000">«abstract»</text>
<text text-anchor="start" x="50" y="-4183.2" font-family="Courier,monospace" font-size="11.00" fill="#000000">Controller</text>
</g>
<!-- \\App\\Controllers\\Login&#45;&gt;\\Core\\Controller -->
<g id="edge3" class="edge">
<title>\\App\\Controllers\\Login&#45;&gt;\\Core\\Controller</title>
<path fill="none" stroke="#000000" d="M276.8247,-3812.7006C251.2033,-3813.056 213.6036,-3817.935 192,-3841 92.101,-3947.6567 222.2736,-4047.0495 136,-4165 135.3394,-4165.9031 134.6396,-4166.7785 133.9051,-4167.6268"/>
<polygon fill="none" stroke="#000000" points="131.4077,-4165.1701 126.4833,-4174.551 136.1829,-4170.2885 131.4077,-4165.1701"/>
</g>
<!-- \\App\\Controllers\\Home -->
<g id="node4" class="node">
<title>\\App\\Controllers\\Home</title>
<polygon fill="none" stroke="#000000" points="331,-3778 277,-3778 277,-3742 331,-3742 331,-3778"/>
<text text-anchor="middle" x="304" y="-3757.2" font-family="Courier,monospace" font-size="11.00" fill="#000000">Home</text>
</g>
<!-- \\App\\Controllers\\Home&#45;&gt;\\Core\\Controller -->
<g id="edge4" class="edge">
<title>\\App\\Controllers\\Home&#45;&gt;\\Core\\Controller</title>
<path fill="none" stroke="#000000" d="M276.702,-3758.587C250.9896,-3758.8583 213.3244,-3763.6767 192,-3787 77.4007,-3912.3414 234.6075,-4026.7248 136,-4165 135.2359,-4166.0715 134.4162,-4167.1036 133.5485,-4168.0977"/>
<polygon fill="none" stroke="#000000" points="131.0541,-4165.6371 126.082,-4174.9928 135.8031,-4170.7797 131.0541,-4165.6371"/>
</g>
<!-- \\App\\Controllers\\Account -->
<g id="node5" class="node">
<title>\\App\\Controllers\\Account</title>
<polygon fill="none" stroke="#000000" points="336,-3940 272,-3940 272,-3904 336,-3904 336,-3940"/>
<text text-anchor="middle" x="304" y="-3919.2" font-family="Courier,monospace" font-size="11.00" fill="#000000">Account</text>
</g>
<!-- \\App\\Controllers\\Account&#45;&gt;\\Core\\Controller -->
<g id="edge5" class="edge">
<title>\\App\\Controllers\\Account&#45;&gt;\\Core\\Controller</title>
<path fill="none" stroke="#000000" d="M295.4229,-3940.0819C273.9803,-3983.6977 214.109,-4096.1602 136,-4165 134.8553,-4166.0089 133.6662,-4166.9922 132.4419,-4167.9495"/>
<polygon fill="none" stroke="#000000" points="130.1392,-4165.2887 123.9466,-4173.8854 134.1485,-4171.0268 130.1392,-4165.2887"/>
</g>
<!-- \\App\\Controllers\\Signup -->
<g id="node6" class="node">
<title>\\App\\Controllers\\Signup</title>
<polygon fill="none" stroke="#000000" points="332.5,-3886 275.5,-3886 275.5,-3850 332.5,-3850 332.5,-3886"/>
<text text-anchor="middle" x="304" y="-3865.2" font-family="Courier,monospace" font-size="11.00" fill="#000000">Signup</text>
</g>
<!-- \\App\\Controllers\\Signup&#45;&gt;\\Core\\Controller -->
<g id="edge6" class="edge">
<title>\\App\\Controllers\\Signup&#45;&gt;\\Core\\Controller</title>
<path fill="none" stroke="#000000" d="M275.0334,-3866.9053C249.6063,-3867.5971 213.4287,-3872.8733 192,-3895 106.7411,-3983.0362 209.9918,-4067.3031 136,-4165 135.3244,-4165.892 134.6109,-4166.7572 133.864,-4167.5962"/>
<polygon fill="none" stroke="#000000" points="131.3771,-4165.1276 126.3601,-4174.4593 136.1014,-4170.293 131.3771,-4165.1276"/>
</g>
<!-- \\App\\Controllers\\TypesIndividu -->
<g id="node7" class="node">
<title>\\App\\Controllers\\TypesIndividu</title>
<polygon fill="none" stroke="#000000" points="356,-3670 252,-3670 252,-3634 356,-3634 356,-3670"/>
<text text-anchor="middle" x="304" y="-3649.2" font-family="Courier,monospace" font-size="11.00" fill="#000000">TypesIndividu</text>
</g>
<!-- \\App\\Controllers\\TypesIndividu&#45;&gt;\\App\\Controllers\\Authenticated -->
<g id="edge7" class="edge">
<title>\\App\\Controllers\\TypesIndividu&#45;&gt;\\App\\Controllers\\Authenticated</title>
<path fill="none" stroke="#000000" d="M251.8631,-3645.6014C220.1962,-3641.715 179.5855,-3636.7309 146.2406,-3632.6386"/>
<polygon fill="none" stroke="#000000" points="146.4954,-3629.1437 136.1435,-3631.3994 145.6426,-3636.0916 146.4954,-3629.1437"/>
</g>
<!-- \\App\\Controllers\\Users -->
<g id="node8" class="node">
<title>\\App\\Controllers\\Users</title>
<polygon fill="none" stroke="#000000" points="331,-3616 277,-3616 277,-3580 331,-3580 331,-3616"/>
<text text-anchor="middle" x="304" y="-3595.2" font-family="Courier,monospace" font-size="11.00" fill="#000000">Users</text>
</g>
<!-- \\App\\Controllers\\Users&#45;&gt;\\App\\Controllers\\Authenticated -->
<g id="edge8" class="edge">
<title>\\App\\Controllers\\Users&#45;&gt;\\App\\Controllers\\Authenticated</title>
<path fill="none" stroke="#000000" d="M276.5817,-3601.365C244.1642,-3605.3435 189.1966,-3612.0895 146.2647,-3617.3584"/>
<polygon fill="none" stroke="#000000" points="145.6884,-3613.9028 136.1892,-3618.595 146.5411,-3620.8507 145.6884,-3613.9028"/>
</g>
<!-- \\App\\Controllers\\Authenticated&#45;&gt;\\Core\\Controller -->
<g id="edge9" class="edge">
<title>\\App\\Controllers\\Authenticated&#45;&gt;\\Core\\Controller</title>
<path fill="none" stroke="#000000" d="M89.9165,-3643.1488C116.4596,-3726.0098 220.821,-4068.1215 164,-4156 157.2809,-4166.3916 146.7683,-4173.8134 135.547,-4179.1036"/>
<polygon fill="none" stroke="#000000" points="133.9117,-4175.993 126.0222,-4183.0645 136.5996,-4182.4564 133.9117,-4175.993"/>
</g>
<!-- \\App\\Controllers\\Documents -->
<g id="node10" class="node">
<title>\\App\\Controllers\\Documents</title>
<polygon fill="none" stroke="#000000" points="342.5,-3562 265.5,-3562 265.5,-3526 342.5,-3526 342.5,-3562"/>
<text text-anchor="middle" x="304" y="-3541.2" font-family="Courier,monospace" font-size="11.00" fill="#000000">Documents</text>
</g>
<!-- \\App\\Controllers\\Documents&#45;&gt;\\App\\Controllers\\Authenticated -->
<g id="edge10" class="edge">
<title>\\App\\Controllers\\Documents&#45;&gt;\\App\\Controllers\\Authenticated</title>
<path fill="none" stroke="#000000" d="M265.2611,-3551.0751C243.3931,-3555.6272 215.767,-3562.3216 192,-3571 168.7764,-3579.48 144.029,-3591.6075 124.0907,-3602.222"/>
<polygon fill="none" stroke="#000000" points="122.427,-3599.1426 115.291,-3606.9739 125.7531,-3605.3019 122.427,-3599.1426"/>
</g>
<!-- \\App\\Views\\Documents\\SearchDocument -->
<g id="node11" class="node">
<title>\\App\\Views\\Documents\\SearchDocument</title>
<polygon fill="none" stroke="#000000" points="359.5,-3400 248.5,-3400 248.5,-3364 359.5,-3364 359.5,-3400"/>
<text text-anchor="middle" x="304" y="-3379.2" font-family="Courier,monospace" font-size="11.00" fill="#000000">SearchDocument</text>
</g>
<!-- \\App\\Views\\Documents\\DeleteDocumentFaillure -->
<g id="node12" class="node">
<title>\\App\\Views\\Documents\\DeleteDocumentFaillure</title>
<polygon fill="none" stroke="#000000" points="386.5,-3346 221.5,-3346 221.5,-3310 386.5,-3310 386.5,-3346"/>
<text text-anchor="middle" x="304" y="-3325.2" font-family="Courier,monospace" font-size="11.00" fill="#000000">DeleteDocumentFaillure</text>
</g>
<!-- \\App\\Views\\Documents\\ShowDocument -->
<g id="node13" class="node">
<title>\\App\\Views\\Documents\\ShowDocument</title>
<polygon fill="none" stroke="#000000" points="353,-3292 255,-3292 255,-3256 353,-3256 353,-3292"/>
<text text-anchor="middle" x="304" y="-3271.2" font-family="Courier,monospace" font-size="11.00" fill="#000000">ShowDocument</text>
</g>
<!-- \\App\\Views\\Documents\\UploadDocumentSuccess -->
<g id="node14" class="node">
<title>\\App\\Views\\Documents\\UploadDocumentSuccess</title>
<polygon fill="none" stroke="#000000" points="383,-3238 225,-3238 225,-3202 383,-3202 383,-3238"/>
<text text-anchor="middle" x="304" y="-3217.2" font-family="Courier,monospace" font-size="11.00" fill="#000000">UploadDocumentSuccess</text>
</g>
<!-- \\App\\Views\\Documents\\UploadDocument -->
<g id="node15" class="node">
<title>\\App\\Views\\Documents\\UploadDocument</title>
<polygon fill="none" stroke="#000000" points="359.5,-3184 248.5,-3184 248.5,-3148 359.5,-3148 359.5,-3184"/>
<text text-anchor="middle" x="304" y="-3163.2" font-family="Courier,monospace" font-size="11.00" fill="#000000">UploadDocument</text>
</g>
<!-- \\App\\Views\\Documents\\DeleteDocumentSuccess -->
<g id="node16" class="node">
<title>\\App\\Views\\Documents\\DeleteDocumentSuccess</title>
<polygon fill="none" stroke="#000000" points="383,-3130 225,-3130 225,-3094 383,-3094 383,-3130"/>
<text text-anchor="middle" x="304" y="-3109.2" font-family="Courier,monospace" font-size="11.00" fill="#000000">DeleteDocumentSuccess</text>
</g>
<!-- \\App\\Views\\TypesIndividu\\DeleteTypeIndividuFaillure -->
<g id="node17" class="node">
<title>\\App\\Views\\TypesIndividu\\DeleteTypeIndividuFaillure</title>
<polygon fill="none" stroke="#000000" points="400,-3050 208,-3050 208,-3014 400,-3014 400,-3050"/>
<text text-anchor="middle" x="304" y="-3029.2" font-family="Courier,monospace" font-size="11.00" fill="#000000">DeleteTypeIndividuFaillure</text>
</g>
<!-- \\App\\Views\\TypesIndividu\\CreateTypeIndividuSuccess -->
<g id="node18" class="node">
<title>\\App\\Views\\TypesIndividu\\CreateTypeIndividuSuccess</title>
<polygon fill="none" stroke="#000000" points="396.5,-2996 211.5,-2996 211.5,-2960 396.5,-2960 396.5,-2996"/>
<text text-anchor="middle" x="304" y="-2975.2" font-family="Courier,monospace" font-size="11.00" fill="#000000">CreateTypeIndividuSuccess</text>
</g>
<!-- \\App\\Views\\TypesIndividu\\UpdateTypeIndividuSuccess -->
<g id="node19" class="node">
<title>\\App\\Views\\TypesIndividu\\UpdateTypeIndividuSuccess</title>
<polygon fill="none" stroke="#000000" points="396.5,-2942 211.5,-2942 211.5,-2906 396.5,-2906 396.5,-2942"/>
<text text-anchor="middle" x="304" y="-2921.2" font-family="Courier,monospace" font-size="11.00" fill="#000000">UpdateTypeIndividuSuccess</text>
</g>
<!-- \\App\\Views\\TypesIndividu\\DeleteTypeIndividuSuccess -->
<g id="node20" class="node">
<title>\\App\\Views\\TypesIndividu\\DeleteTypeIndividuSuccess</title>
<polygon fill="none" stroke="#000000" points="396.5,-2888 211.5,-2888 211.5,-2852 396.5,-2852 396.5,-2888"/>
<text text-anchor="middle" x="304" y="-2867.2" font-family="Courier,monospace" font-size="11.00" fill="#000000">DeleteTypeIndividuSuccess</text>
</g>
<!-- \\App\\Views\\TypesIndividu\\ShowTypeIndividu -->
<g id="node21" class="node">
<title>\\App\\Views\\TypesIndividu\\ShowTypeIndividu</title>
<polygon fill="none" stroke="#000000" points="366.5,-2834 241.5,-2834 241.5,-2798 366.5,-2798 366.5,-2834"/>
<text text-anchor="middle" x="304" y="-2813.2" font-family="Courier,monospace" font-size="11.00" fill="#000000">ShowTypeIndividu</text>
</g>
<!-- \\App\\Views\\TypesIndividu\\SearchTypeIndividu -->
<g id="node22" class="node">
<title>\\App\\Views\\TypesIndividu\\SearchTypeIndividu</title>
<polygon fill="none" stroke="#000000" points="373,-2780 235,-2780 235,-2744 373,-2744 373,-2780"/>
<text text-anchor="middle" x="304" y="-2759.2" font-family="Courier,monospace" font-size="11.00" fill="#000000">SearchTypeIndividu</text>
</g>
<!-- \\App\\Views\\TypesIndividu\\CreateTypeIndividu -->
<g id="node23" class="node">
<title>\\App\\Views\\TypesIndividu\\CreateTypeIndividu</title>
<polygon fill="none" stroke="#000000" points="373,-2726 235,-2726 235,-2690 373,-2690 373,-2726"/>
<text text-anchor="middle" x="304" y="-2705.2" font-family="Courier,monospace" font-size="11.00" fill="#000000">CreateTypeIndividu</text>
</g>
<!-- \\App\\Views\\TypesIndividu\\ListTypesIndividu -->
<g id="node24" class="node">
<title>\\App\\Views\\TypesIndividu\\ListTypesIndividu</title>
<polygon fill="none" stroke="#000000" points="369.5,-2672 238.5,-2672 238.5,-2636 369.5,-2636 369.5,-2672"/>
<text text-anchor="middle" x="304" y="-2651.2" font-family="Courier,monospace" font-size="11.00" fill="#000000">ListTypesIndividu</text>
</g>
<!-- \\App\\Views\\Login\\News -->
<g id="node25" class="node">
<title>\\App\\Views\\Login\\News</title>
<polygon fill="none" stroke="#000000" points="331,-2592 277,-2592 277,-2556 331,-2556 331,-2592"/>
<text text-anchor="middle" x="304" y="-2571.2" font-family="Courier,monospace" font-size="11.00" fill="#000000">News</text>
</g>
<!-- \\App\\Views\\Home\\Index -->
<g id="node26" class="node">
<title>\\App\\Views\\Home\\Index</title>
<polygon fill="none" stroke="#000000" points="331,-2512 277,-2512 277,-2476 331,-2476 331,-2512"/>
<text text-anchor="middle" x="304" y="-2491.2" font-family="Courier,monospace" font-size="11.00" fill="#000000">Index</text>
</g>
<!-- \\App\\Views\\Individus\\CreateIndividuSucces -->
<g id="node27" class="node">
<title>\\App\\Views\\Individus\\CreateIndividuSucces</title>
<polygon fill="none" stroke="#000000" points="380,-2432 228,-2432 228,-2396 380,-2396 380,-2432"/>
<text text-anchor="middle" x="304" y="-2411.2" font-family="Courier,monospace" font-size="11.00" fill="#000000">CreateIndividuSucces</text>
</g>
<!-- \\App\\Views\\Individus\\CreateIndividu -->
<g id="node28" class="node">
<title>\\App\\Views\\Individus\\CreateIndividu</title>
<polygon fill="none" stroke="#000000" points="359.5,-2378 248.5,-2378 248.5,-2342 359.5,-2342 359.5,-2378"/>
<text text-anchor="middle" x="304" y="-2357.2" font-family="Courier,monospace" font-size="11.00" fill="#000000">CreateIndividu</text>
</g>
<!-- \\App\\Views\\Individus\\SearchIndividu -->
<g id="node29" class="node">
<title>\\App\\Views\\Individus\\SearchIndividu</title>
<polygon fill="none" stroke="#000000" points="359.5,-2324 248.5,-2324 248.5,-2288 359.5,-2288 359.5,-2324"/>
<text text-anchor="middle" x="304" y="-2303.2" font-family="Courier,monospace" font-size="11.00" fill="#000000">SearchIndividu</text>
</g>
<!-- \\App\\Views\\Individus\\DeleteIndividuSuccess -->
<g id="node30" class="node">
<title>\\App\\Views\\Individus\\DeleteIndividuSuccess</title>
<polygon fill="none" stroke="#000000" points="383,-2270 225,-2270 225,-2234 383,-2234 383,-2270"/>
<text text-anchor="middle" x="304" y="-2249.2" font-family="Courier,monospace" font-size="11.00" fill="#000000">DeleteIndividuSuccess</text>
</g>
<!-- \\App\\Views\\Individus\\CreateIndividuFaillure -->
<g id="node31" class="node">
<title>\\App\\Views\\Individus\\CreateIndividuFaillure</title>
<polygon fill="none" stroke="#000000" points="386.5,-2216 221.5,-2216 221.5,-2180 386.5,-2180 386.5,-2216"/>
<text text-anchor="middle" x="304" y="-2195.2" font-family="Courier,monospace" font-size="11.00" fill="#000000">CreateIndividuFaillure</text>
</g>
<!-- \\App\\Views\\Individus\\ShowIndividu -->
<g id="node32" class="node">
<title>\\App\\Views\\Individus\\ShowIndividu</title>
<polygon fill="none" stroke="#000000" points="353,-2162 255,-2162 255,-2126 353,-2126 353,-2162"/>
<text text-anchor="middle" x="304" y="-2141.2" font-family="Courier,monospace" font-size="11.00" fill="#000000">ShowIndividu</text>
</g>
<!-- \\App\\Views\\Individus\\ListIndicvidu -->
<g id="node33" class="node">
<title>\\App\\Views\\Individus\\ListIndicvidu</title>
<polygon fill="none" stroke="#000000" points="356,-2108 252,-2108 252,-2072 356,-2072 356,-2108"/>
<text text-anchor="middle" x="304" y="-2087.2" font-family="Courier,monospace" font-size="11.00" fill="#000000">ListIndicvidu</text>
</g>
<!-- \\App\\Views\\Individus\\UpdateIndividuSuccess -->
<g id="node34" class="node">
<title>\\App\\Views\\Individus\\UpdateIndividuSuccess</title>
<polygon fill="none" stroke="#000000" points="383,-2054 225,-2054 225,-2018 383,-2018 383,-2054"/>
<text text-anchor="middle" x="304" y="-2033.2" font-family="Courier,monospace" font-size="11.00" fill="#000000">UpdateIndividuSuccess</text>
</g>
<!-- \\App\\Views\\Users\\UpdateUserSuccess -->
<g id="node35" class="node">
<title>\\App\\Views\\Users\\UpdateUserSuccess</title>
<polygon fill="none" stroke="#000000" points="369.5,-1974 238.5,-1974 238.5,-1938 369.5,-1938 369.5,-1974"/>
<text text-anchor="middle" x="304" y="-1953.2" font-family="Courier,monospace" font-size="11.00" fill="#000000">UpdateUserSuccess</text>
</g>
<!-- \\App\\Views\\Users\\CreateUser -->
<g id="node36" class="node">
<title>\\App\\Views\\Users\\CreateUser</title>
<polygon fill="none" stroke="#000000" points="346,-1920 262,-1920 262,-1884 346,-1884 346,-1920"/>
<text text-anchor="middle" x="304" y="-1899.2" font-family="Courier,monospace" font-size="11.00" fill="#000000">CreateUser</text>
</g>
<!-- \\App\\Views\\Users\\CreateUserSuccess -->
<g id="node37" class="node">
<title>\\App\\Views\\Users\\CreateUserSuccess</title>
<polygon fill="none" stroke="#000000" points="369.5,-1866 238.5,-1866 238.5,-1830 369.5,-1830 369.5,-1866"/>
<text text-anchor="middle" x="304" y="-1845.2" font-family="Courier,monospace" font-size="11.00" fill="#000000">CreateUserSuccess</text>
</g>
<!-- \\App\\Views\\Users\\DeleteUserSuccess -->
<g id="node38" class="node">
<title>\\App\\Views\\Users\\DeleteUserSuccess</title>
<polygon fill="none" stroke="#000000" points="369.5,-1812 238.5,-1812 238.5,-1776 369.5,-1776 369.5,-1812"/>
<text text-anchor="middle" x="304" y="-1791.2" font-family="Courier,monospace" font-size="11.00" fill="#000000">DeleteUserSuccess</text>
</g>
<!-- \\App\\Views\\Users\\SearchUser -->
<g id="node39" class="node">
<title>\\App\\Views\\Users\\SearchUser</title>
<polygon fill="none" stroke="#000000" points="346,-1758 262,-1758 262,-1722 346,-1722 346,-1758"/>
<text text-anchor="middle" x="304" y="-1737.2" font-family="Courier,monospace" font-size="11.00" fill="#000000">SearchUser</text>
</g>
<!-- \\App\\Views\\Users\\ListUsers -->
<g id="node40" class="node">
<title>\\App\\Views\\Users\\ListUsers</title>
<polygon fill="none" stroke="#000000" points="342.5,-1704 265.5,-1704 265.5,-1668 342.5,-1668 342.5,-1704"/>
<text text-anchor="middle" x="304" y="-1683.2" font-family="Courier,monospace" font-size="11.00" fill="#000000">ListUsers</text>
</g>
<!-- \\App\\Views\\Users\\DeleteUserFaillure -->
<g id="node41" class="node">
<title>\\App\\Views\\Users\\DeleteUserFaillure</title>
<polygon fill="none" stroke="#000000" points="373,-1650 235,-1650 235,-1614 373,-1614 373,-1650"/>
<text text-anchor="middle" x="304" y="-1629.2" font-family="Courier,monospace" font-size="11.00" fill="#000000">DeleteUserFaillure</text>
</g>
<!-- \\App\\Views\\Users\\ShowUser -->
<g id="node42" class="node">
<title>\\App\\Views\\Users\\ShowUser</title>
<polygon fill="none" stroke="#000000" points="339.5,-1596 268.5,-1596 268.5,-1560 339.5,-1560 339.5,-1596"/>
<text text-anchor="middle" x="304" y="-1575.2" font-family="Courier,monospace" font-size="11.00" fill="#000000">ShowUser</text>
</g>
<!-- \\App\\Views\\Common\\Menu -->
<g id="node43" class="node">
<title>\\App\\Views\\Common\\Menu</title>
<polygon fill="none" stroke="#000000" points="331,-1516 277,-1516 277,-1480 331,-1480 331,-1516"/>
<text text-anchor="middle" x="304" y="-1495.2" font-family="Courier,monospace" font-size="11.00" fill="#000000">Menu</text>
</g>
<!-- \\App\\Views\\Common\\Header -->
<g id="node44" class="node">
<title>\\App\\Views\\Common\\Header</title>
<polygon fill="none" stroke="#000000" points="332.5,-1462 275.5,-1462 275.5,-1426 332.5,-1426 332.5,-1462"/>
<text text-anchor="middle" x="304" y="-1441.2" font-family="Courier,monospace" font-size="11.00" fill="#000000">Header</text>
</g>
<!-- \\App\\Views\\Common\\Entete -->
<g id="node45" class="node">
<title>\\App\\Views\\Common\\Entete</title>
<polygon fill="none" stroke="#000000" points="332.5,-1408 275.5,-1408 275.5,-1372 332.5,-1372 332.5,-1408"/>
<text text-anchor="middle" x="304" y="-1387.2" font-family="Courier,monospace" font-size="11.00" fill="#000000">Entete</text>
</g>
<!-- \\App\\Views\\Common\\Footer -->
<g id="node46" class="node">
<title>\\App\\Views\\Common\\Footer</title>
<polygon fill="none" stroke="#000000" points="332.5,-1354 275.5,-1354 275.5,-1318 332.5,-1318 332.5,-1354"/>
<text text-anchor="middle" x="304" y="-1333.2" font-family="Courier,monospace" font-size="11.00" fill="#000000">Footer</text>
</g>
<!-- \\App\\Views\\TypesDocument\\DeleteTypeDocumentFaillure -->
<g id="node47" class="node">
<title>\\App\\Views\\TypesDocument\\DeleteTypeDocumentFaillure</title>
<polygon fill="none" stroke="#000000" points="400,-1274 208,-1274 208,-1238 400,-1238 400,-1274"/>
<text text-anchor="middle" x="304" y="-1253.2" font-family="Courier,monospace" font-size="11.00" fill="#000000">DeleteTypeDocumentFaillure</text>
</g>
<!-- \\App\\Views\\TypesDocument\\CreateTypeDocumentSuccess -->
<g id="node48" class="node">
<title>\\App\\Views\\TypesDocument\\CreateTypeDocumentSuccess</title>
<polygon fill="none" stroke="#000000" points="396.5,-1220 211.5,-1220 211.5,-1184 396.5,-1184 396.5,-1220"/>
<text text-anchor="middle" x="304" y="-1199.2" font-family="Courier,monospace" font-size="11.00" fill="#000000">CreateTypeDocumentSuccess</text>
</g>
<!-- \\App\\Views\\TypesDocument\\ListTypesDocument -->
<g id="node49" class="node">
<title>\\App\\Views\\TypesDocument\\ListTypesDocument</title>
<polygon fill="none" stroke="#000000" points="369.5,-1166 238.5,-1166 238.5,-1130 369.5,-1130 369.5,-1166"/>
<text text-anchor="middle" x="304" y="-1145.2" font-family="Courier,monospace" font-size="11.00" fill="#000000">ListTypesDocument</text>
</g>
<!-- \\App\\Views\\TypesDocument\\SearchTypeDocument -->
<g id="node50" class="node">
<title>\\App\\Views\\TypesDocument\\SearchTypeDocument</title>
<polygon fill="none" stroke="#000000" points="373,-1112 235,-1112 235,-1076 373,-1076 373,-1112"/>
<text text-anchor="middle" x="304" y="-1091.2" font-family="Courier,monospace" font-size="11.00" fill="#000000">SearchTypeDocument</text>
</g>
<!-- \\App\\Views\\TypesDocument\\UpdateTypeDocumentSuccess -->
<g id="node51" class="node">
<title>\\App\\Views\\TypesDocument\\UpdateTypeDocumentSuccess</title>
<polygon fill="none" stroke="#000000" points="396.5,-1058 211.5,-1058 211.5,-1022 396.5,-1022 396.5,-1058"/>
<text text-anchor="middle" x="304" y="-1037.2" font-family="Courier,monospace" font-size="11.00" fill="#000000">UpdateTypeDocumentSuccess</text>
</g>
<!-- \\App\\Views\\TypesDocument\\ShowTypeDocument -->
<g id="node52" class="node">
<title>\\App\\Views\\TypesDocument\\ShowTypeDocument</title>
<polygon fill="none" stroke="#000000" points="366.5,-1004 241.5,-1004 241.5,-968 366.5,-968 366.5,-1004"/>
<text text-anchor="middle" x="304" y="-983.2" font-family="Courier,monospace" font-size="11.00" fill="#000000">ShowTypeDocument</text>
</g>
<!-- \\App\\Views\\TypesDocument\\CreateTypeDocument -->
<g id="node53" class="node">
<title>\\App\\Views\\TypesDocument\\CreateTypeDocument</title>
<polygon fill="none" stroke="#000000" points="373,-950 235,-950 235,-914 373,-914 373,-950"/>
<text text-anchor="middle" x="304" y="-929.2" font-family="Courier,monospace" font-size="11.00" fill="#000000">CreateTypeDocument</text>
</g>
<!-- \\App\\Views\\TypesDocument\\DeleteTypeDocumentSuccess -->
<g id="node54" class="node">
<title>\\App\\Views\\TypesDocument\\DeleteTypeDocumentSuccess</title>
<polygon fill="none" stroke="#000000" points="396.5,-896 211.5,-896 211.5,-860 396.5,-860 396.5,-896"/>
<text text-anchor="middle" x="304" y="-875.2" font-family="Courier,monospace" font-size="11.00" fill="#000000">DeleteTypeDocumentSuccess</text>
</g>
<!-- \\App\\Views\\Error500 -->
<g id="node55" class="node">
<title>\\App\\Views\\Error500</title>
<polygon fill="none" stroke="#000000" points="339.5,-842 268.5,-842 268.5,-806 339.5,-806 339.5,-842"/>
<text text-anchor="middle" x="304" y="-821.2" font-family="Courier,monospace" font-size="11.00" fill="#000000">Error500</text>
</g>
<!-- \\App\\Views\\Error404 -->
<g id="node56" class="node">
<title>\\App\\Views\\Error404</title>
<polygon fill="none" stroke="#000000" points="339.5,-788 268.5,-788 268.5,-752 339.5,-752 339.5,-788"/>
<text text-anchor="middle" x="304" y="-767.2" font-family="Courier,monospace" font-size="11.00" fill="#000000">Error404</text>
</g>
<!-- \\App\\Models\\TypeIndividu -->
<g id="node57" class="node">
<title>\\App\\Models\\TypeIndividu</title>
<polygon fill="none" stroke="#000000" points="353,-546 255,-546 255,-510 353,-510 353,-546"/>
<text text-anchor="middle" x="304" y="-525.2" font-family="Courier,monospace" font-size="11.00" fill="#000000">TypeIndividu</text>
</g>
<!-- \\Core\\Model -->
<g id="node72" class="node">
<title>\\Core\\Model</title>
<polygon fill="none" stroke="#000000" points="126,-4156 42,-4156 42,-4120 126,-4120 126,-4156"/>
<text text-anchor="start" x="50" y="-4141.2" font-family="Courier,monospace" font-size="11.00" fill="#000000">«abstract»</text>
<text text-anchor="start" x="67" y="-4129.2" font-family="Courier,monospace" font-size="11.00" fill="#000000">Model</text>
</g>
<!-- \\App\\Models\\TypeIndividu&#45;&gt;\\Core\\Model -->
<g id="edge11" class="edge">
<title>\\App\\Models\\TypeIndividu&#45;&gt;\\Core\\Model</title>
<path fill="none" stroke="#000000" d="M254.8825,-526.956C232.1202,-529.277 206.8735,-536.4177 192,-555 68.5339,-709.253 239.9144,-3942.9533 136,-4111 135.1975,-4112.2978 134.3105,-4113.5361 133.3517,-4114.7176"/>
<polygon fill="none" stroke="#000000" points="130.8704,-4112.2483 126.1154,-4121.7162 135.7368,-4117.28 130.8704,-4112.2483"/>
</g>
<!-- \\App\\Models\\User -->
<g id="node58" class="node">
<title>\\App\\Models\\User</title>
<polygon fill="none" stroke="#000000" points="331,-492 277,-492 277,-456 331,-456 331,-492"/>
<text text-anchor="middle" x="304" y="-471.2" font-family="Courier,monospace" font-size="11.00" fill="#000000">User</text>
</g>
<!-- \\App\\Models\\User&#45;&gt;\\Core\\Model -->
<g id="edge12" class="edge">
<title>\\App\\Models\\User&#45;&gt;\\Core\\Model</title>
<path fill="none" stroke="#000000" d="M276.9979,-472.0016C250.7463,-471.7129 211.9951,-476.013 192,-501 66.6779,-657.6096 241.4719,-3940.3897 136,-4111 135.1977,-4112.2978 134.3108,-4113.5363 133.3521,-4114.7179"/>
<polygon fill="none" stroke="#000000" points="130.8707,-4112.2486 126.1164,-4121.7168 135.7375,-4117.28 130.8707,-4112.2486"/>
</g>
<!-- \\App\\Models\\TypeDocument -->
<g id="node59" class="node">
<title>\\App\\Models\\TypeDocument</title>
<polygon fill="none" stroke="#000000" points="353,-438 255,-438 255,-402 353,-402 353,-438"/>
<text text-anchor="middle" x="304" y="-417.2" font-family="Courier,monospace" font-size="11.00" fill="#000000">TypeDocument</text>
</g>
<!-- \\App\\Models\\TypeDocument&#45;&gt;\\Core\\Model -->
<g id="edge13" class="edge">
<title>\\App\\Models\\TypeDocument&#45;&gt;\\Core\\Model</title>
<path fill="none" stroke="#000000" d="M254.8788,-418.953C232.1156,-421.2733 206.8692,-428.4142 192,-447 64.8219,-605.9663 243.0294,-3937.826 136,-4111 135.1978,-4112.2979 134.3111,-4113.5365 133.3525,-4114.7181"/>
<polygon fill="none" stroke="#000000" points="130.8711,-4112.2489 126.1173,-4121.7174 135.7382,-4117.28 130.8711,-4112.2489"/>
</g>
<!-- \\App\\Models\\RememberedLogin -->
<g id="node60" class="node">
<title>\\App\\Models\\RememberedLogin</title>
<polygon fill="none" stroke="#000000" points="363,-384 245,-384 245,-348 363,-348 363,-384"/>
<text text-anchor="middle" x="304" y="-363.2" font-family="Courier,monospace" font-size="11.00" fill="#000000">RememberedLogin</text>
</g>
<!-- \\App\\Models\\RememberedLogin&#45;&gt;\\Core\\Model -->
<g id="edge14" class="edge">
<title>\\App\\Models\\RememberedLogin&#45;&gt;\\Core\\Model</title>
<path fill="none" stroke="#000000" d="M244.7141,-366.309C224.9125,-369.6194 204.6808,-377.146 192,-393 62.9659,-554.3229 244.587,-3935.2623 136,-4111 135.198,-4112.298 134.3114,-4113.5366 133.3529,-4114.7183"/>
<polygon fill="none" stroke="#000000" points="130.8714,-4112.2492 126.1182,-4121.718 135.7388,-4117.28 130.8714,-4112.2492"/>
</g>
<!-- \\App\\Models\\Role -->
<g id="node61" class="node">
<title>\\App\\Models\\Role</title>
<polygon fill="none" stroke="#000000" points="331,-708 277,-708 277,-672 331,-672 331,-708"/>
<text text-anchor="middle" x="304" y="-687.2" font-family="Courier,monospace" font-size="11.00" fill="#000000">Role</text>
</g>
<!-- \\App\\Models\\Role&#45;&gt;\\Core\\Model -->
<g id="edge15" class="edge">
<title>\\App\\Models\\Role&#45;&gt;\\Core\\Model</title>
<path fill="none" stroke="#000000" d="M276.983,-693.7282C250.3229,-698.9929 210.896,-711.3941 192,-740 88.7642,-896.2851 234.5784,-3951.7363 136,-4111 135.197,-4112.2974 134.3095,-4113.5355 133.3502,-4114.7167"/>
<polygon fill="none" stroke="#000000" points="130.869,-4112.2472 126.1119,-4121.714 135.7343,-4117.2801 130.869,-4112.2472"/>
</g>
<!-- \\App\\Models\\Individu -->
<g id="node62" class="node">
<title>\\App\\Models\\Individu</title>
<polygon fill="none" stroke="#000000" points="339.5,-654 268.5,-654 268.5,-618 339.5,-618 339.5,-654"/>
<text text-anchor="middle" x="304" y="-633.2" font-family="Courier,monospace" font-size="11.00" fill="#000000">Individu</text>
</g>
<!-- \\App\\Models\\Individu&#45;&gt;\\Core\\Model -->
<g id="edge16" class="edge">
<title>\\App\\Models\\Individu&#45;&gt;\\Core\\Model</title>
<path fill="none" stroke="#000000" d="M268.2491,-634.0881C242.7306,-634.866 209.8787,-640.6744 192,-663 72.2459,-812.5398 236.7993,-3948.0807 136,-4111 135.1972,-4112.2976 134.3099,-4113.5358 133.3509,-4114.7171"/>
<polygon fill="none" stroke="#000000" points="130.8696,-4112.2477 126.1134,-4121.715 135.7354,-4117.2801 130.8696,-4112.2477"/>
</g>
<!-- \\App\\Models\\Document -->
<g id="node63" class="node">
<title>\\App\\Models\\Document</title>
<polygon fill="none" stroke="#000000" points="339.5,-600 268.5,-600 268.5,-564 339.5,-564 339.5,-600"/>
<text text-anchor="middle" x="304" y="-579.2" font-family="Courier,monospace" font-size="11.00" fill="#000000">Document</text>
</g>
<!-- \\App\\Models\\Document&#45;&gt;\\Core\\Model -->
<g id="edge17" class="edge">
<title>\\App\\Models\\Document&#45;&gt;\\Core\\Model</title>
<path fill="none" stroke="#000000" d="M268.2475,-580.0868C242.7281,-580.864 209.8759,-586.6722 192,-609 70.3899,-760.8964 238.3569,-3945.517 136,-4111 135.1974,-4112.2977 134.3102,-4113.5359 133.3513,-4114.7174"/>
<polygon fill="none" stroke="#000000" points="130.87,-4112.248 126.1144,-4121.7156 135.7361,-4117.2801 130.87,-4112.248"/>
</g>
<!-- \\App\\Downloader -->
<g id="node64" class="node">
<title>\\App\\Downloader</title>
<polygon fill="none" stroke="#000000" points="346,-330 262,-330 262,-294 346,-294 346,-330"/>
<text text-anchor="middle" x="304" y="-309.2" font-family="Courier,monospace" font-size="11.00" fill="#000000">Downloader</text>
</g>
<!-- \\App\\Flash -->
<g id="node65" class="node">
<title>\\App\\Flash</title>
<polygon fill="none" stroke="#000000" points="331,-276 277,-276 277,-240 331,-240 331,-276"/>
<text text-anchor="middle" x="304" y="-255.2" font-family="Courier,monospace" font-size="11.00" fill="#000000">Flash</text>
</g>
<!-- \\App\\Auth -->
<g id="node66" class="node">
<title>\\App\\Auth</title>
<polygon fill="none" stroke="#000000" points="331,-222 277,-222 277,-186 331,-186 331,-222"/>
<text text-anchor="middle" x="304" y="-201.2" font-family="Courier,monospace" font-size="11.00" fill="#000000">Auth</text>
</g>
<!-- \\App\\Uploader -->
<g id="node67" class="node">
<title>\\App\\Uploader</title>
<polygon fill="none" stroke="#000000" points="339.5,-168 268.5,-168 268.5,-132 339.5,-132 339.5,-168"/>
<text text-anchor="middle" x="304" y="-147.2" font-family="Courier,monospace" font-size="11.00" fill="#000000">Uploader</text>
</g>
<!-- \\App\\Token -->
<g id="node68" class="node">
<title>\\App\\Token</title>
<polygon fill="none" stroke="#000000" points="331,-114 277,-114 277,-78 331,-78 331,-114"/>
<text text-anchor="middle" x="304" y="-93.2" font-family="Courier,monospace" font-size="11.00" fill="#000000">Token</text>
</g>
<!-- \\App\\Config -->
<g id="node69" class="node">
<title>\\App\\Config</title>
<polygon fill="none" stroke="#000000" points="332.5,-60 275.5,-60 275.5,-24 332.5,-24 332.5,-60"/>
<text text-anchor="middle" x="304" y="-39.2" font-family="Courier,monospace" font-size="11.00" fill="#000000">Config</text>
</g>
<!-- \\Core\\Error -->
<g id="node70" class="node">
<title>\\Core\\Error</title>
<polygon fill="none" stroke="#000000" points="111,-4264 57,-4264 57,-4228 111,-4228 111,-4264"/>
<text text-anchor="middle" x="84" y="-4243.2" font-family="Courier,monospace" font-size="11.00" fill="#000000">Error</text>
</g>
<!-- \\Core\\Router -->
<g id="node73" class="node">
<title>\\Core\\Router</title>
<polygon fill="none" stroke="#000000" points="112.5,-4102 55.5,-4102 55.5,-4066 112.5,-4066 112.5,-4102"/>
<text text-anchor="middle" x="84" y="-4081.2" font-family="Courier,monospace" font-size="11.00" fill="#000000">Router</text>
</g>
<!-- \\Core\\View -->
<g id="node74" class="node">
<title>\\Core\\View</title>
<polygon fill="none" stroke="#000000" points="111,-4048 57,-4048 57,-4012 111,-4012 111,-4048"/>
<text text-anchor="middle" x="84" y="-4027.2" font-family="Courier,monospace" font-size="11.00" fill="#000000">View</text>
</g>
</g>
</svg>
